<svg xmlns="http://www.w3.org/2000/svg" aria-hidden="true" style="position:absolute;width:0;height:0;overflow:hidden">
  <defs>
    <symbol id="icon-astronaut" viewBox="0 0 32 32">
      <path fill="#e5e5e5" d="M0 0h32v32H0V0z" style="fill:var(--color1, #e5e5e5)"/>
      <path fill="#fff" d="M-560-408h720v1734h-720V-408z" style="fill:var(--color2, #fff)"/>
      <path fill="#f4f4fd" stroke="#8e8f99" stroke-width=".5" d="M-48-11.75H80c.966 0 1.75.784 1.75 1.75v52A1.75 1.75 0 0 1 80 43.75H-48A1.75 1.75 0 0 1-49.75 42v-52c0-.966.783-1.75 1.75-1.75z" style="fill:var(--color3, #f4f4fd);stroke:var(--color4, #8e8f99)"/>
      <path fill="#4d5ae5" d="M31.974 4.524a.534.534 0 0 0-.43-.363l-1.91-.278-.855-1.731c-.179-.365-.777-.365-.956 0l-.855 1.731-1.91.278a.535.535 0 0 0-.296.91l1.383 1.348-.326 1.903c-.034.2.048.402.212.522a.53.53 0 0 0 .562.04l1.709-.899 1.709.899a.536.536 0 0 0 .775-.563l-.326-1.903 1.383-1.348a.536.536 0 0 0 .135-.547zm-2.463 1.327a.534.534 0 0 0-.153.472l.191 1.114-1-.526a.533.533 0 0 0-.498 0l-1.001.526.191-1.114a.534.534 0 0 0-.153-.472l-.81-.789 1.119-.163a.532.532 0 0 0 .402-.292l.5-1.013.5 1.013a.535.535 0 0 0 .402.292l1.119.163-.809.789zM26.133 20.522h-1.067v1.067h1.067v-1.067zM26.133 22.656h-1.067v1.067h1.067v-1.067zM27.2 21.589h-1.067v1.067H27.2v-1.067zM25.067 21.589H24v1.067h1.067v-1.067zM22.4 26.389h-1.067v1.067H22.4v-1.067zM22.4 28.522h-1.067v1.067H22.4v-1.067zM23.467 27.456H22.4v1.067h1.067v-1.067zM21.333 27.456h-1.067v1.067h1.067v-1.067zM16 24.256h-1.067v1.067H16v-1.067zM16 26.389h-1.067v1.067H16v-1.067zM17.067 25.322H16v1.067h1.067v-1.067zM14.933 25.322h-1.067v1.067h1.067v-1.067zM5.867 6.122H4.8v1.067h1.067V6.122zM5.867 8.255H4.8v1.067h1.067V8.255z" style="fill:var(--color5, #4d5ae5)"/>
      <path fill="#4d5ae5" d="M6.933 7.189H5.866v1.067h1.067V7.189zM4.8 7.189H3.733v1.067H4.8V7.189z" style="fill:var(--color5, #4d5ae5)"/>
      <path fill="#2e2f42" d="M24.715 14.159a1.775 1.775 0 0 0-1.188-.705 1.778 1.778 0 0 0-1.34.352l-1.252.96-1.898 1.417-1.358-.541c2.421-1.086 4.114-3.508 4.114-6.32 0-3.823-3.123-6.933-6.961-6.933s-6.961 3.11-6.961 6.933a6.86 6.86 0 0 0 1.12 3.758l-2.764-.024h-.005c-.009 0-.015.004-.023.005a.515.515 0 0 0-.155.031l-.038.013c-.006.003-.013.003-.019.006l-3.233 1.596-.001.001-1.893.911a.397.397 0 0 0-.063.035 1.779 1.779 0 0 0-.598 2.295c.22.429.595.745 1.056.889a1.776 1.776 0 0 0 1.378-.128l1.388-.738 2.264-1.169 1.357-.008L2.2 22.211l-.002.001-1.339 1.333c-.316.315-.49.732-.49 1.178s.174.863.49 1.179c.325.323.752.485 1.179.485s.854-.162 1.18-.485l1.314-1.309 1.741-1.3.901.897-1.762 1.754-.002.001-1.339 1.333c-.316.315-.49.732-.49 1.178s.174.863.49 1.179c.325.323.753.485 1.18.485s.855-.162 1.18-.485l3.482-3.467.001-.002 1.01-1-.004-.004c.006-.006.015-.009.022-.015l5.166-5.658 3.471.494a.52.52 0 0 0 .262-.033c.018-.006.033-.015.05-.023.019-.01.039-.015.058-.027l3.213-2.133c.012-.008.018-.021.029-.029.013-.01.029-.014.041-.026l1.271-1.191c.662-.62.753-1.635.212-2.362zM2.13 17.77a.714.714 0 0 1-.558.052.717.717 0 0 1-.213-1.26l1.314-.632.449 1.313-.992.527zm3.498-1.828-1.548.8-.439-1.283 2.027-1.001-.04 1.484zm15.099-6.62a5.79 5.79 0 0 1-.599 2.559l-4.181-1.899a1.863 1.863 0 0 0-.788-1.388l1.464-4.86c2.378.756 4.105 2.974 4.105 5.588zm-11.789 0c0-3.235 2.644-5.867 5.894-5.867.253 0 .5.021.745.052l-1.432 4.754c-.019-.001-.037-.006-.057-.006-1.033 0-1.873.837-1.873 1.867s.84 1.867 1.873 1.867c.694 0 1.294-.383 1.618-.945l3.862 1.755a5.894 5.894 0 0 1-4.737 2.39c-3.25 0-5.894-2.632-5.894-5.867zm5.956.8c0 .441-.362.8-.806.8s-.806-.359-.806-.8c0-.441.362-.8.806-.8s.806.359.806.8zM2.465 25.146a.608.608 0 0 1-.854.001.592.592 0 0 1 0-.844l.962-.958.851.848-.959.955zm3.214 3.734a.608.608 0 0 1-.855.001.592.592 0 0 1 0-.844l.963-.959.852.848-.96.955zm3.481-3.469-.002.001-1.765 1.76-.852-.848 1.763-1.755.002-.001c.04-.04.065-.088.09-.135.007-.014.02-.026.026-.04.017-.041.019-.085.026-.129.003-.025.014-.047.014-.073 0-.036-.013-.07-.02-.106-.006-.032-.006-.065-.019-.095a.55.55 0 0 0-.091-.138c-.01-.012-.014-.027-.025-.038h-.001l-.001-.002-1.607-1.6c-.017-.017-.039-.024-.058-.038a.507.507 0 0 0-.087-.058.515.515 0 0 0-.093-.033.507.507 0 0 0-.103-.02.5.5 0 0 0-.095.005.53.53 0 0 0-.104.02.477.477 0 0 0-.094.045c-.02.011-.042.015-.061.029L4.23 23.486l-.901-.897 2.399-2.386 4.361 4.289-.928.919zm6.819-7.017c-.015-.002-.03.004-.045.003a.556.556 0 0 0-.3.075.492.492 0 0 0-.083.061c-.013.011-.028.017-.04.029l-4.698 5.146-4.328-4.257 2.833-2.818a.534.534 0 0 0-.379-.911v-.001l-2.219.013.028-1.607 3.104.027a6.947 6.947 0 0 0 4.981 2.101c.437 0 .864-.045 1.279-.123.04.032.079.065.13.085l2.41.96.152.758.178.885-3.003-.427zm4.041.178-.313-1.558 1.446-1.08.947 1.257-2.08 1.381zm3.754-2.831-.838.785-.931-1.236.831-.637a.735.735 0 0 1 .543-.143.718.718 0 0 1 .48.284.713.713 0 0 1-.085.947z" style="fill:var(--color6, #2e2f42)"/>
      <path fill="#2e2f42" d="m13.602 18.544-2.143-2.133a.534.534 0 0 0-.753 0l-2.142 2.133a.537.537 0 0 0 0 .756l2.142 2.133a.536.536 0 0 0 .753 0l2.143-2.133a.535.535 0 0 0 0-.756zm-2.519 1.759-1.387-1.381 1.387-1.381 1.387 1.381-1.387 1.381zM17.164 5.071l-.258 1.036c.071.018 1.738.452 1.738 2.149h1.067c0-2.017-1.666-2.965-2.547-3.185zM19.711 9.322h-1.067v1.067h1.067V9.322z" style="fill:var(--color6, #2e2f42)"/>
    </symbol>
    <symbol id="icon-diagram" viewBox="0 0 32 32">
      <path fill="#e5e5e5" d="M0 0h32v32H0V0z" style="fill:var(--color1, #e5e5e5)"/>
      <path fill="#fff" d="M-416-408h720v1734h-720V-408z" style="fill:var(--color2, #fff)"/>
      <path fill="#f4f4fd" stroke="#8e8f99" stroke-width=".5" d="M-48-11.75H80c.966 0 1.75.784 1.75 1.75v52A1.75 1.75 0 0 1 80 43.75H-48A1.75 1.75 0 0 1-49.75 42v-52c0-.966.783-1.75 1.75-1.75z" style="fill:var(--color3, #f4f4fd);stroke:var(--color4, #8e8f99)"/>
      <path fill="#4d5ae5" d="M14.925 14.965h1.066v4.798h-1.066v-4.797zM19.19 17.097h1.066v2.665H19.19v-2.665zM10.661 18.696h1.066v1.066h-1.066v-1.066zM7.463 18.163h1.066v1.599H7.463v-1.599z" style="fill:var(--color5, #4d5ae5)"/>
      <path fill="#2e2f42" d="M1.599 28.291h25.587a1.6 1.6 0 0 0 1.599-1.599V24.56a1.6 1.6 0 0 0-1.599-1.599h-.533V9.668L29.681 6.8a1.608 1.608 0 1 0-.746-.763L26.654 8.2V6.97a1.6 1.6 0 0 0-1.599-1.599H3.733A1.6 1.6 0 0 0 2.134 6.97v15.992h-.533a1.6 1.6 0 0 0-1.599 1.599v2.132a1.6 1.6 0 0 0 1.599 1.599zM30.384 4.837a.533.533 0 1 1 0 1.067.533.533 0 0 1 0-1.067zM3.198 6.969c0-.294.239-.533.533-.533h21.322c.294 0 .533.239.533.533v2.239l-1.066 1.013V8.035a.533.533 0 0 0-.533-.533H4.797a.533.533 0 0 0-.533.533v13.326c0 .294.239.533.533.533h19.19a.533.533 0 0 0 .533-.533v-9.674l1.066-1.01v12.284H3.198V6.969zm4.798 6.93a1.598 1.598 0 1 0 1.107 2.749l1.853.93a.532.532 0 0 0 .636-.123l3.939-4.431 3.872 2.901a.533.533 0 0 0 .686-.039l3.365-3.188v8.131H5.33V8.569h18.124v2.66l-3.771 3.572-3.904-2.927a.533.533 0 0 0-.718.072l-3.993 4.493-1.493-.746c.011-.064.018-.129.02-.193a1.6 1.6 0 0 0-1.599-1.599zm.533 1.599a.533.533 0 1 1-1.067 0 .533.533 0 0 1 1.067 0zm3.198 8.529h5.331v.533a.533.533 0 0 1-.533.533h-4.264a.533.533 0 0 1-.533-.533v-.533zm-10.661.533c0-.294.239-.533.533-.533h9.062v.533a1.6 1.6 0 0 0 1.599 1.599h4.264a1.6 1.6 0 0 0 1.599-1.599v-.533h9.062c.294 0 .533.239.533.533v2.132a.533.533 0 0 1-.533.533H1.598a.533.533 0 0 1-.533-.533V24.56z" style="fill:var(--color6, #2e2f42)"/>
    </symbol>
    <symbol id="icon-clock" viewBox="0 0 32 32">
      <path fill="#e5e5e5" d="M0 0h32v32H0V0z" style="fill:var(--color1, #e5e5e5)"/>
      <path fill="#fff" d="M-272-408h720v1734h-720V-408z" style="fill:var(--color2, #fff)"/>
      <path fill="#f4f4fd" stroke="#8e8f99" stroke-width=".5" d="M-48-11.75H80c.966 0 1.75.784 1.75 1.75v52A1.75 1.75 0 0 1 80 43.75H-48A1.75 1.75 0 0 1-49.75 42v-52c0-.966.783-1.75 1.75-1.75z" style="fill:var(--color3, #f4f4fd);stroke:var(--color4, #8e8f99)"/>
      <path fill="#2e2f42" d="M31.297 15.301C31.295 6.849 24.442-.002 15.989 0S.686 6.855.688 15.308a15.304 15.304 0 0 0 10.649 14.576.662.662 0 0 0 .529-.065.637.637 0 0 0 .283-.356l3.865-12.25a1.912 1.912 0 1 0-.84-3.635l-5.106-5.107a.637.637 0 0 0-.902.902l5.103 5.109a1.876 1.876 0 0 0 .536 2.309l-3.683 11.673C3.844 25.783.118 17.71 2.799 10.432S13.553-.572 20.831 2.109c7.278 2.681 11.004 10.754 8.323 18.032a14.042 14.042 0 0 1-7.462 7.973l-.398-1.874a.637.637 0 0 0-1.049-.344l-3.837 3.426a.637.637 0 0 0 .231 1.084l4.899 1.564a.638.638 0 0 0 .819-.74l-.391-1.839a15.255 15.255 0 0 0 9.329-14.089zm-15.305-.637a.638.638 0 1 1 0 1.277.638.638 0 0 1 0-1.277zm2.101 14.864 2.184-1.948.603 2.84-2.787-.892z" style="fill:var(--color6, #2e2f42)"/>
      <path fill="#4d5ae5" d="M15.354 3.185V4.46a.638.638 0 1 0 1.276 0V3.185a.638.638 0 0 0-1.276 0zM3.876 14.664a.638.638 0 0 0 0 1.276h1.275a.638.638 0 1 0 0-1.276H3.876zM28.108 15.939a.638.638 0 1 0 0-1.276h-1.275a.638.638 0 0 0 0 1.276h1.275z" style="fill:var(--color5, #4d5ae5)"/>
    </symbol>
    <symbol id="icon-antenna" viewBox="0 0 32 32">
      <path fill="#e5e5e5" d="M0 0h32v32H0V0z" style="fill:var(--color1, #e5e5e5)"/>
      <path fill="#fff" d="M-128-408h720v1734h-720V-408z" style="fill:var(--color2, #fff)"/>
      <path fill="#f4f4fd" stroke="#8e8f99" stroke-width=".5" d="M-48-11.75H80c.966 0 1.75.784 1.75 1.75v52A1.75 1.75 0 0 1 80 43.75H-48A1.75 1.75 0 0 1-49.75 42v-52c0-.966.783-1.75 1.75-1.75z" style="fill:var(--color3, #f4f4fd);stroke:var(--color4, #8e8f99)"/>
      <path fill="#2e2f42" d="m30.773 22.098-8.443-8.505.937-4.615c.242.094.499.144.758.146h.006a2.159 2.159 0 1 0-2.008-1.435l-4.96.605L8.972.161a.534.534 0 0 0-.377-.16.532.532 0 0 0-.373.155L6.709 1.66a.534.534 0 0 0 0 .754l.814.826a14.943 14.943 0 0 0 2.519 17.663.513.513 0 0 0 .146.098c-.034.18-.051.364-.052.547v6.187h-6.4a2.67 2.67 0 0 0-2.667 2.667v1.067c0 .295.239.533.533.533h24.533a.533.533 0 0 0 .533-.533v-1.067a2.67 2.67 0 0 0-2.667-2.667h-6.4v-2.742a15.09 15.09 0 0 0 3.049.32 14.854 14.854 0 0 0 7.04-1.783l.818.823a.534.534 0 0 0 .377.16.532.532 0 0 0 .373-.155l1.513-1.504a.534.534 0 0 0 0-.754zM23.28 6.233a1.067 1.067 0 1 1 .753 1.822h-.003a1.067 1.067 0 0 1-.747-1.823h-.002zm-1.256 3.505-.598 2.946-1.175-1.182 1.774-1.763zm-.605-.902-1.92 1.909-1.485-1.493 3.405-.415zM24.004 28.8a1.6 1.6 0 0 1 1.6 1.6v.533H2.137V30.4a1.6 1.6 0 0 1 1.6-1.6h20.267zm-7.467-2.133v1.067h-5.333v-1.067h5.333zM11.204 25.6v-4.053c0-1.294 1.196-2.347 2.667-2.347s2.667 1.053 2.667 2.347V25.6h-5.333zm6.4-1.696v-2.357c0-1.882-1.675-3.413-3.733-3.413a3.8 3.8 0 0 0-3.281 1.786A13.87 13.87 0 0 1 8.311 4.033l18.602 18.708a13.818 13.818 0 0 1-9.309 1.163zm11.289-.684L7.836 2.039l.755-.752 7.935 7.98c.004 0 .006.007.01.01l13.115 13.191-.757.752z" style="fill:var(--color6, #2e2f42)"/>
      <path fill="#4d5ae5" d="M13.876 20.267h-.005a1.6 1.6 0 1 0-.004 3.2h.005a1.6 1.6 0 1 0 .004-3.2zm.373 1.978a.534.534 0 0 1-.752-.756.534.534 0 0 1 .373-.155.534.534 0 0 1 .374.911h.005z" style="fill:var(--color5, #4d5ae5)"/>
    </symbol>
    <symbol id="icon-linkedin" viewBox="0 0 32 32">
      <path d="M31.992 32v-.001H32V20.263c0-5.741-1.236-10.164-7.948-10.164-3.227 0-5.392 1.771-6.276 3.449h-.093v-2.913h-6.364v21.364h6.627V21.42c0-2.785.528-5.479 3.977-5.479 3.399 0 3.449 3.179 3.449 5.657v10.401h6.62zM.528 10.636h6.635V32H.528V10.636zM3.843 0C1.722 0 0 1.721 0 3.843s1.721 3.879 3.843 3.879c2.121 0 3.843-1.757 3.843-3.879A3.846 3.846 0 0 0 3.843 0z"/>
    </symbol>
    <symbol id="icon-facebook" viewBox="0 0 32 32">
      <path d="M21.329 5.313h2.921V.225C23.746.156 22.013 0 19.994 0c-4.212 0-7.097 2.649-7.097 7.519V12H8.249v5.688h4.648V32h5.699V17.689h4.46l.708-5.688h-5.169V8.082c.001-1.644.444-2.769 2.735-2.769z"/>
    </symbol>
    <symbol id="icon-twitter" viewBox="0 0 32 32">
      <path d="M32 6.078c-1.19.522-2.458.868-3.78 1.036a6.523 6.523 0 0 0 2.886-3.626 13.11 13.11 0 0 1-4.16 1.588A6.574 6.574 0 0 0 22.154 3c-3.632 0-6.556 2.948-6.556 6.562 0 .52.044 1.02.152 1.496-5.454-.266-10.28-2.88-13.522-6.862a6.605 6.605 0 0 0-.898 3.316 6.57 6.57 0 0 0 2.914 5.452 6.479 6.479 0 0 1-2.964-.808v.072c0 3.188 2.274 5.836 5.256 6.446a6.548 6.548 0 0 1-1.72.216 5.8 5.8 0 0 1-1.242-.112c.85 2.598 3.262 4.508 6.13 4.57a13.182 13.182 0 0 1-8.134 2.798c-.538 0-1.054-.024-1.57-.09A18.469 18.469 0 0 0 10.064 29c12.072 0 18.672-10 18.672-18.668 0-.29-.01-.57-.024-.848A13.087 13.087 0 0 0 32 6.078z"/>
    </symbol>
    <symbol id="icon-instagram" viewBox="0 0 32 32">
      <path d="M31.969 9.408c-.075-1.7-.35-2.869-.744-3.882a7.803 7.803 0 0 0-1.85-2.838A7.867 7.867 0 0 0 26.543.844C25.524.45 24.361.175 22.661.1 20.948.019 20.404 0 16.06 0s-4.888.019-6.595.094c-1.7.075-2.869.35-3.882.744a7.803 7.803 0 0 0-2.838 1.85A7.867 7.867 0 0 0 .901 5.52C.507 6.539.232 7.702.157 9.402c-.081 1.713-.1 2.257-.1 6.601s.019 4.888.094 6.595c.075 1.7.35 2.869.744 3.882a7.895 7.895 0 0 0 1.85 2.838 7.867 7.867 0 0 0 2.832 1.844c1.019.394 2.182.669 3.882.744 1.706.075 2.25.094 6.595.094s4.888-.019 6.595-.094c1.7-.075 2.869-.35 3.882-.744a8.181 8.181 0 0 0 4.682-4.682c.394-1.019.669-2.182.744-3.882.075-1.707.094-2.25.094-6.595s-.006-4.888-.081-6.595zm-2.882 13.065c-.069 1.563-.331 2.407-.55 2.969a5.31 5.31 0 0 1-3.038 3.038c-.563.219-1.413.481-2.969.55-1.688.075-2.194.094-6.464.094s-4.782-.019-6.464-.094c-1.563-.069-2.407-.331-2.969-.55a4.926 4.926 0 0 1-1.838-1.194 4.974 4.974 0 0 1-1.194-1.838c-.219-.563-.481-1.413-.55-2.969-.075-1.688-.094-2.194-.094-6.464s.019-4.782.094-6.464c.069-1.563.331-2.407.55-2.969a4.868 4.868 0 0 1 1.2-1.838A4.974 4.974 0 0 1 6.639 3.55c.563-.219 1.413-.481 2.969-.55 1.688-.075 2.194-.094 6.464-.094 4.276 0 4.782.019 6.464.094 1.563.069 2.407.331 2.969.55a4.914 4.914 0 0 1 1.838 1.194 4.974 4.974 0 0 1 1.194 1.838c.219.563.481 1.413.55 2.969.075 1.688.094 2.194.094 6.464s-.019 4.77-.094 6.458z"/>
      <path d="M16.059 7.783c-4.538 0-8.22 3.682-8.22 8.22s3.682 8.22 8.22 8.22c4.539 0 8.22-3.682 8.22-8.22s-3.682-8.22-8.22-8.22zm0 13.552a5.333 5.333 0 0 1 0-10.664 5.333 5.333 0 0 1 0 10.664zM26.524 7.458a1.919 1.919 0 1 1-3.838 0 1.919 1.919 0 0 1 3.838 0z"/>
    </symbol>
    <svg aria-hidden="true" style="position: absolute; width: 0; height: 0; overflow: hidden;" version="1.1" xmlns="http://www.w3.org/2000/svg" xmlns:xlink="http://www.w3.org/1999/xlink">
<defs>
<symbol id="icon-email-black" viewBox="0 0 24 32">
<path fill="#e5e5e5" style="fill: var(--color1, #e5e5e5)" d="M0 0h24v32h-24v-32z"></path>
<path fill="#fff" style="fill: var(--color2, #fff)" d="M-741.333-466.667h1920v896h-1920v-896z"></path>
<path fill="#000" style="fill: var(--color3, #000)" d="M-741.333-370.667h1920v800h-1920v-800z"></path>
<path fill="#2e2f42" style="fill: var(--color4, #2e2f42)" opacity="0.7" d="M-741.333-370.667h1920v800h-1920v-800z"></path>
<path fill="#fff" style="fill: var(--color2, #fff)" d="M-70.289-52.531v8.531h-28.255v-8.531h28.255zM-94.971-97.083v53.083h-10.938v-53.083h10.938zM-73.971-75.464v8.313h-24.573v-8.313h24.573zM-70.325-97.083v8.568h-28.219v-8.568h28.219zM-50.348-44h-10.573v-42.948c0-2.99 0.583-5.505 1.75-7.547 1.191-2.066 2.856-3.621 4.995-4.667 2.163-1.069 4.727-1.604 7.693-1.604 0.972 0 1.908 0.073 2.807 0.219 0.899 0.122 1.774 0.28 2.625 0.474l-0.109 7.911c-0.462-0.121-0.948-0.207-1.458-0.255s-1.106-0.073-1.787-0.073c-1.264 0-2.345 0.219-3.245 0.656-0.875 0.413-1.543 1.033-2.005 1.859s-0.693 1.835-0.693 3.026v42.948zM-42.473-83.448v7.437h-24.318v-7.437h24.318zM-22.094-44h-10.573v-42.948c0-2.99 0.583-5.505 1.75-7.547 1.191-2.066 2.856-3.621 4.995-4.667 2.163-1.069 4.727-1.604 7.693-1.604 0.972 0 1.908 0.073 2.807 0.219 0.899 0.122 1.774 0.28 2.625 0.474l-0.109 7.911c-0.462-0.121-0.948-0.207-1.458-0.255s-1.106-0.073-1.786-0.073c-1.264 0-2.346 0.219-3.245 0.656-0.875 0.413-1.543 1.033-2.005 1.859s-0.693 1.835-0.693 3.026v42.948zM-14.219-83.448v7.437h-24.318v-7.437h24.318zM10.061-43.271c-3.063 0-5.809-0.486-8.24-1.458-2.431-0.997-4.497-2.37-6.198-4.12-1.677-1.75-2.965-3.78-3.865-6.089-0.899-2.333-1.349-4.813-1.349-7.437v-1.458c0-2.99 0.425-5.724 1.276-8.203s2.066-4.63 3.646-6.453c1.604-1.823 3.549-3.221 5.833-4.193 2.285-0.997 4.861-1.495 7.729-1.495 2.795 0 5.274 0.462 7.437 1.385s3.974 2.236 5.432 3.938c1.483 1.701 2.601 3.743 3.354 6.125 0.753 2.358 1.13 4.983 1.13 7.875v4.375h-31.354v-7h21.037v-0.802c0-1.458-0.267-2.759-0.802-3.901-0.51-1.167-1.288-2.090-2.333-2.771s-2.382-1.021-4.010-1.021c-1.385 0-2.576 0.304-3.573 0.911s-1.811 1.458-2.443 2.552c-0.608 1.094-1.069 2.382-1.385 3.865-0.292 1.458-0.438 3.063-0.438 4.813v1.458c0 1.58 0.219 3.038 0.656 4.375 0.462 1.337 1.106 2.491 1.932 3.464 0.851 0.972 1.872 1.726 3.063 2.26 1.215 0.535 2.589 0.802 4.12 0.802 1.896 0 3.658-0.365 5.287-1.094 1.653-0.753 3.075-1.884 4.266-3.391l5.104 5.542c-0.826 1.191-1.957 2.333-3.391 3.427-1.41 1.094-3.111 1.993-5.104 2.698-1.993 0.681-4.266 1.021-6.818 1.021zM50.018-51.474c1.288 0 2.431-0.243 3.427-0.729 0.997-0.511 1.774-1.215 2.333-2.115 0.583-0.924 0.887-2.005 0.911-3.245h9.88c-0.024 2.771-0.766 5.238-2.224 7.401-1.458 2.139-3.415 3.828-5.87 5.068-2.455 1.215-5.201 1.823-8.24 1.823-3.062 0-5.736-0.51-8.021-1.531-2.26-1.021-4.144-2.431-5.651-4.229-1.507-1.823-2.637-3.938-3.391-6.344-0.753-2.431-1.13-5.031-1.13-7.802v-1.057c0-2.795 0.377-5.396 1.13-7.802 0.753-2.431 1.884-4.545 3.391-6.344 1.507-1.823 3.391-3.245 5.651-4.266s4.91-1.531 7.948-1.531c3.233 0 6.064 0.62 8.495 1.859 2.455 1.24 4.375 3.014 5.76 5.323 1.41 2.285 2.127 4.995 2.151 8.13h-9.88c-0.024-1.313-0.304-2.503-0.839-3.573-0.51-1.069-1.264-1.92-2.26-2.552-0.972-0.656-2.175-0.984-3.609-0.984-1.531 0-2.783 0.328-3.755 0.984-0.972 0.632-1.726 1.507-2.26 2.625-0.535 1.094-0.911 2.345-1.13 3.755-0.195 1.385-0.292 2.844-0.292 4.375v1.057c0 1.531 0.097 3.002 0.292 4.411s0.559 2.661 1.094 3.755c0.559 1.094 1.325 1.957 2.297 2.589s2.236 0.948 3.792 0.948zM93.475-83.448v7.437h-22.969v-7.437h22.969zM76.193-93.182h10.5v37.297c0 1.142 0.146 2.017 0.437 2.625 0.316 0.608 0.778 1.033 1.385 1.276 0.608 0.219 1.373 0.328 2.297 0.328 0.656 0 1.24-0.024 1.75-0.073 0.535-0.073 0.984-0.146 1.349-0.219l0.036 7.729c-0.899 0.292-1.871 0.523-2.917 0.693s-2.2 0.255-3.463 0.255c-2.309 0-4.326-0.377-6.052-1.13-1.701-0.778-3.014-2.017-3.937-3.719s-1.385-3.938-1.385-6.708v-38.354zM112.030-83.448v39.448h-10.536v-39.448h10.536zM100.838-93.729c0-1.531 0.535-2.795 1.604-3.792s2.503-1.495 4.302-1.495c1.774 0 3.196 0.498 4.266 1.495 1.094 0.997 1.641 2.26 1.641 3.792s-0.547 2.795-1.641 3.792c-1.069 0.997-2.491 1.495-4.266 1.495-1.799 0-3.233-0.498-4.302-1.495s-1.604-2.26-1.604-3.792zM135.617-51.656l8.751-31.792h10.973l-13.307 39.448h-6.636l0.219-7.656zM129.602-83.448l8.786 31.828 0.183 7.62h-6.672l-13.307-39.448h11.010zM179.184-43.271c-3.063 0-5.809-0.486-8.24-1.458-2.431-0.997-4.496-2.37-6.197-4.12-1.677-1.75-2.965-3.78-3.865-6.089-0.899-2.333-1.348-4.813-1.348-7.437v-1.458c0-2.99 0.425-5.724 1.276-8.203s2.065-4.63 3.645-6.453c1.604-1.823 3.548-3.221 5.833-4.193 2.284-0.997 4.861-1.495 7.729-1.495 2.795 0 5.275 0.462 7.437 1.385s3.973 2.236 5.432 3.938c1.483 1.701 2.601 3.743 3.355 6.125 0.753 2.358 1.129 4.983 1.129 7.875v4.375h-31.353v-7h21.036v-0.802c0-1.458-0.267-2.759-0.801-3.901-0.511-1.167-1.289-2.090-2.333-2.771-1.045-0.681-2.383-1.021-4.011-1.021-1.385 0-2.577 0.304-3.573 0.911s-1.811 1.458-2.443 2.552c-0.608 1.094-1.069 2.382-1.385 3.865-0.292 1.458-0.437 3.063-0.437 4.813v1.458c0 1.58 0.219 3.038 0.656 4.375 0.461 1.337 1.105 2.491 1.932 3.464 0.851 0.972 1.872 1.726 3.063 2.26 1.216 0.535 2.589 0.802 4.12 0.802 1.896 0 3.657-0.365 5.287-1.094 1.652-0.753 3.075-1.884 4.265-3.391l5.104 5.542c-0.827 1.191-1.956 2.333-3.391 3.427-1.409 1.094-3.111 1.993-5.104 2.698-1.993 0.681-4.265 1.021-6.817 1.021zM251.223-57.891c0-0.948-0.147-1.799-0.437-2.552-0.268-0.778-0.779-1.483-1.532-2.115-0.753-0.656-1.811-1.3-3.172-1.932-1.36-0.632-3.123-1.288-5.285-1.969-2.407-0.778-4.692-1.653-6.855-2.625-2.139-0.972-4.035-2.102-5.688-3.391-1.628-1.312-2.916-2.832-3.864-4.557-0.924-1.726-1.385-3.731-1.385-6.016 0-2.212 0.485-4.217 1.459-6.016 0.972-1.823 2.333-3.378 4.083-4.667 1.751-1.312 3.816-2.321 6.197-3.026 2.407-0.705 5.044-1.057 7.912-1.057 3.913 0 7.328 0.705 10.245 2.115 2.916 1.41 5.176 3.342 6.781 5.797 1.628 2.455 2.443 5.262 2.443 8.422h-10.865c0-1.555-0.328-2.917-0.984-4.083-0.632-1.191-1.604-2.127-2.917-2.807-1.288-0.681-2.916-1.021-4.885-1.021-1.896 0-3.475 0.292-4.739 0.875-1.264 0.559-2.212 1.325-2.844 2.297-0.632 0.948-0.948 2.017-0.948 3.208 0 0.899 0.219 1.713 0.656 2.443 0.461 0.729 1.143 1.41 2.041 2.042 0.9 0.632 2.005 1.227 3.319 1.786 1.312 0.559 2.831 1.106 4.557 1.641 2.892 0.875 5.432 1.859 7.619 2.953 2.212 1.094 4.060 2.321 5.543 3.682s2.6 2.905 3.353 4.63 1.131 3.682 1.131 5.87c0 2.309-0.449 4.375-1.349 6.198-0.899 1.823-2.199 3.366-3.901 4.63-1.701 1.264-3.731 2.224-6.088 2.88s-4.995 0.984-7.912 0.984c-2.624 0-5.213-0.34-7.765-1.021-2.552-0.705-4.873-1.762-6.963-3.172-2.067-1.41-3.719-3.208-4.959-5.396s-1.86-4.776-1.86-7.766h10.975c0 1.653 0.255 3.050 0.765 4.193s1.228 2.066 2.151 2.771c0.948 0.705 2.067 1.215 3.355 1.531 1.312 0.316 2.747 0.474 4.301 0.474 1.896 0 3.452-0.267 4.667-0.802 1.24-0.535 2.152-1.276 2.735-2.224 0.608-0.948 0.912-2.017 0.912-3.208zM268.757-63.323v-0.766c0-2.892 0.413-5.554 1.24-7.984 0.827-2.455 2.029-4.582 3.609-6.38s3.524-3.196 5.833-4.193c2.309-1.021 4.959-1.531 7.948-1.531s5.651 0.51 7.984 1.531c2.333 0.997 4.291 2.394 5.869 4.193 1.605 1.799 2.82 3.925 3.647 6.38 0.827 2.431 1.239 5.092 1.239 7.984v0.766c0 2.868-0.412 5.529-1.239 7.984-0.827 2.431-2.041 4.557-3.647 6.38-1.579 1.799-3.524 3.196-5.833 4.193-2.308 0.997-4.957 1.495-7.948 1.495-2.989 0-5.651-0.498-7.984-1.495-2.309-0.997-4.265-2.394-5.869-4.193-1.58-1.823-2.783-3.95-3.609-6.38-0.827-2.455-1.24-5.116-1.24-7.984zM279.257-64.089v0.766c0 1.653 0.145 3.196 0.437 4.63s0.753 2.698 1.385 3.792c0.656 1.069 1.508 1.908 2.552 2.516 1.045 0.608 2.321 0.911 3.828 0.911 1.459 0 2.711-0.304 3.756-0.911s1.884-1.446 2.516-2.516c0.632-1.094 1.093-2.358 1.385-3.792 0.316-1.434 0.473-2.977 0.473-4.63v-0.766c0-1.604-0.157-3.111-0.473-4.521-0.292-1.434-0.767-2.698-1.423-3.792-0.632-1.118-1.471-1.993-2.515-2.625-1.045-0.632-2.309-0.948-3.792-0.948s-2.747 0.316-3.792 0.948c-1.021 0.632-1.86 1.507-2.516 2.625-0.632 1.094-1.093 2.358-1.385 3.792-0.292 1.41-0.437 2.917-0.437 4.521zM325.157-100v56h-10.537v-56h10.537zM358.661-53.443v-30.005h10.5v39.448h-9.881l-0.619-9.443zM359.828-61.536l3.099-0.073c0 2.625-0.304 5.068-0.912 7.328-0.607 2.236-1.519 4.181-2.735 5.833-1.215 1.628-2.745 2.904-4.593 3.828-1.847 0.899-4.023 1.349-6.525 1.349-1.92 0-3.695-0.267-5.324-0.802-1.604-0.559-2.989-1.422-4.156-2.589-1.143-1.191-2.041-2.71-2.697-4.557-0.632-1.871-0.948-4.12-0.948-6.745v-25.484h10.5v25.557c0 1.167 0.133 2.151 0.401 2.953 0.291 0.802 0.692 1.458 1.203 1.969s1.105 0.875 1.787 1.094c0.704 0.219 1.483 0.328 2.333 0.328 2.163 0 3.864-0.437 5.104-1.312 1.264-0.875 2.151-2.066 2.661-3.573 0.535-1.531 0.803-3.233 0.803-5.104zM397.997-83.448v7.437h-22.968v-7.437h22.968zM380.716-93.182h10.5v37.297c0 1.142 0.147 2.017 0.439 2.625 0.316 0.608 0.777 1.033 1.385 1.276 0.607 0.219 1.373 0.328 2.296 0.328 0.657 0 1.24-0.024 1.751-0.073 0.535-0.073 0.984-0.146 1.349-0.219l0.036 7.729c-0.9 0.292-1.872 0.523-2.917 0.693-1.044 0.17-2.199 0.255-3.463 0.255-2.309 0-4.327-0.377-6.052-1.13-1.701-0.778-3.015-2.017-3.937-3.719-0.924-1.701-1.387-3.938-1.387-6.708v-38.354zM416.553-83.448v39.448h-10.536v-39.448h10.536zM405.361-93.729c0-1.531 0.535-2.795 1.604-3.792s2.503-1.495 4.301-1.495c1.775 0 3.197 0.498 4.267 1.495 1.093 0.997 1.64 2.26 1.64 3.792s-0.547 2.795-1.64 3.792c-1.069 0.997-2.492 1.495-4.267 1.495-1.799 0-3.232-0.498-4.301-1.495s-1.604-2.26-1.604-3.792zM425.047-63.323v-0.766c0-2.892 0.413-5.554 1.24-7.984 0.827-2.455 2.029-4.582 3.609-6.38s3.524-3.196 5.833-4.193c2.309-1.021 4.959-1.531 7.948-1.531s5.651 0.51 7.984 1.531c2.333 0.997 4.291 2.394 5.871 4.193 1.604 1.799 2.819 3.925 3.645 6.38 0.827 2.431 1.24 5.092 1.24 7.984v0.766c0 2.868-0.413 5.529-1.24 7.984-0.827 2.431-2.041 4.557-3.645 6.38-1.58 1.799-3.525 3.196-5.833 4.193-2.309 0.997-4.959 1.495-7.948 1.495-2.991 0-5.652-0.498-7.985-1.495-2.308-0.997-4.265-2.394-5.869-4.193-1.58-1.823-2.783-3.95-3.609-6.38-0.827-2.455-1.24-5.116-1.24-7.984zM435.547-64.089v0.766c0 1.653 0.147 3.196 0.437 4.63 0.292 1.434 0.755 2.698 1.387 3.792 0.656 1.069 1.507 1.908 2.552 2.516 1.044 0.608 2.32 0.911 3.828 0.911 1.457 0 2.709-0.304 3.755-0.911s1.884-1.446 2.516-2.516c0.632-1.094 1.093-2.358 1.385-3.792 0.316-1.434 0.473-2.977 0.473-4.63v-0.766c0-1.604-0.157-3.111-0.473-4.521-0.292-1.434-0.765-2.698-1.423-3.792-0.631-1.118-1.469-1.993-2.515-2.625s-2.309-0.948-3.792-0.948-2.747 0.316-3.792 0.948c-1.020 0.632-1.859 1.507-2.515 2.625-0.632 1.094-1.095 2.358-1.387 3.792-0.291 1.41-0.437 2.917-0.437 4.521zM480.644-75.026v31.026h-10.5v-39.448h9.844l0.656 8.422zM479.113-65.109h-2.844c0-2.917 0.377-5.542 1.131-7.875 0.753-2.358 1.811-4.363 3.172-6.016 1.361-1.677 2.977-2.953 4.848-3.828 1.896-0.899 4.011-1.349 6.344-1.349 1.848 0 3.537 0.267 5.068 0.802 1.532 0.535 2.844 1.385 3.937 2.552 1.119 1.167 1.969 2.71 2.552 4.63 0.608 1.92 0.912 4.266 0.912 7.036v25.156h-10.573v-25.193c0-1.75-0.243-3.111-0.729-4.083-0.485-0.972-1.203-1.653-2.151-2.042-0.924-0.413-2.065-0.62-3.427-0.62-1.411 0-2.637 0.279-3.683 0.839-1.021 0.559-1.872 1.337-2.552 2.333-0.656 0.972-1.155 2.115-1.495 3.427s-0.511 2.722-0.511 4.229zM535.039-54.901c0-0.753-0.219-1.434-0.656-2.042s-1.252-1.167-2.443-1.677c-1.167-0.535-2.856-1.021-5.068-1.458-1.993-0.437-3.852-0.984-5.577-1.641-1.701-0.681-3.184-1.495-4.448-2.443-1.24-0.948-2.212-2.066-2.917-3.354-0.704-1.313-1.057-2.807-1.057-4.484 0-1.653 0.353-3.208 1.057-4.667 0.729-1.458 1.763-2.747 3.099-3.865 1.361-1.142 3.015-2.030 4.959-2.661 1.969-0.656 4.181-0.984 6.636-0.984 3.427 0 6.368 0.547 8.823 1.641 2.479 1.094 4.375 2.601 5.688 4.521 1.336 1.896 2.004 4.059 2.004 6.49h-10.5c0-1.021-0.219-1.932-0.656-2.734-0.413-0.826-1.069-1.471-1.968-1.932-0.876-0.486-2.017-0.729-3.428-0.729-1.167 0-2.175 0.207-3.025 0.62-0.851 0.389-1.507 0.924-1.969 1.604-0.437 0.656-0.656 1.385-0.656 2.187 0 0.608 0.121 1.155 0.365 1.641 0.267 0.462 0.692 0.887 1.276 1.276 0.583 0.389 1.336 0.753 2.26 1.094 0.948 0.316 2.115 0.608 3.5 0.875 2.844 0.583 5.384 1.349 7.62 2.297 2.236 0.924 4.011 2.187 5.323 3.792 1.312 1.58 1.968 3.658 1.968 6.234 0 1.75-0.388 3.354-1.167 4.813-0.777 1.458-1.895 2.734-3.353 3.828-1.459 1.069-3.208 1.908-5.251 2.516-2.017 0.583-4.289 0.875-6.817 0.875-3.671 0-6.781-0.656-9.333-1.969-2.528-1.313-4.448-2.977-5.76-4.995-1.288-2.042-1.932-4.132-1.932-6.271h9.952c0.049 1.434 0.413 2.589 1.095 3.464 0.704 0.875 1.592 1.507 2.661 1.896 1.093 0.389 2.272 0.583 3.536 0.583 1.361 0 2.492-0.182 3.391-0.547 0.9-0.389 1.58-0.899 2.041-1.531 0.487-0.656 0.729-1.41 0.729-2.26zM-73.389 36h-10.573v-42.948c0-2.99 0.583-5.505 1.75-7.547 1.191-2.066 2.856-3.621 4.995-4.667 2.163-1.069 4.727-1.604 7.693-1.604 0.972 0 1.908 0.073 2.807 0.219 0.899 0.122 1.774 0.28 2.625 0.474l-0.109 7.911c-0.462-0.122-0.948-0.207-1.458-0.255s-1.106-0.073-1.786-0.073c-1.264 0-2.345 0.219-3.245 0.656-0.875 0.413-1.543 1.033-2.005 1.859s-0.693 1.835-0.693 3.026v42.948zM-65.514-3.448v7.438h-24.318v-7.438h24.318zM-60.193 16.677v-0.766c0-2.892 0.413-5.554 1.24-7.984 0.826-2.455 2.029-4.582 3.609-6.38s3.524-3.196 5.833-4.193c2.309-1.021 4.958-1.531 7.948-1.531s5.651 0.51 7.984 1.531c2.333 0.997 4.29 2.394 5.87 4.193 1.604 1.799 2.819 3.925 3.646 6.38 0.826 2.431 1.24 5.092 1.24 7.984v0.766c0 2.868-0.413 5.529-1.24 7.984-0.826 2.431-2.042 4.557-3.646 6.38-1.58 1.799-3.524 3.196-5.833 4.193s-4.958 1.495-7.948 1.495c-2.99 0-5.651-0.498-7.984-1.495-2.309-0.997-4.266-2.394-5.87-4.193-1.58-1.823-2.783-3.95-3.609-6.38-0.826-2.455-1.24-5.116-1.24-7.984zM-49.693 15.911v0.766c0 1.653 0.146 3.196 0.437 4.63s0.753 2.698 1.385 3.792c0.656 1.069 1.507 1.908 2.552 2.516s2.321 0.911 3.828 0.911c1.458 0 2.71-0.304 3.755-0.911s1.884-1.446 2.516-2.516c0.632-1.094 1.094-2.358 1.385-3.792 0.316-1.434 0.474-2.977 0.474-4.63v-0.766c0-1.604-0.158-3.111-0.474-4.521-0.292-1.434-0.766-2.698-1.422-3.792-0.632-1.118-1.47-1.993-2.516-2.625s-2.309-0.948-3.792-0.948c-1.483 0-2.747 0.316-3.792 0.948-1.021 0.632-1.859 1.507-2.516 2.625-0.632 1.094-1.094 2.358-1.385 3.792-0.292 1.41-0.437 2.917-0.437 4.521zM-4.377 5.156v30.844h-10.5v-39.448h9.88l0.62 8.604zM7.509-3.703l-0.182 9.734c-0.51-0.073-1.13-0.134-1.859-0.182-0.705-0.073-1.349-0.109-1.932-0.109-1.483 0-2.771 0.194-3.865 0.583-1.069 0.365-1.969 0.911-2.698 1.641-0.705 0.729-1.24 1.616-1.604 2.661-0.34 1.045-0.535 2.236-0.583 3.573l-2.115-0.656c0-2.552 0.255-4.898 0.766-7.036 0.51-2.163 1.252-4.047 2.224-5.651 0.997-1.604 2.212-2.844 3.646-3.719s3.075-1.313 4.922-1.313c0.583 0 1.179 0.049 1.786 0.146 0.608 0.073 1.106 0.182 1.495 0.328zM41.995-17.083l11.083 24.208 11.083-24.208h11.922l-17.464 33.76v19.323h-11.083v-19.323l-17.5-33.76h11.958zM77.687 16.677v-0.766c0-2.892 0.413-5.554 1.24-7.984 0.826-2.455 2.029-4.582 3.609-6.38s3.524-3.196 5.833-4.193c2.309-1.021 4.958-1.531 7.948-1.531s5.651 0.51 7.984 1.531c2.333 0.997 4.29 2.394 5.87 4.193 1.604 1.799 2.819 3.925 3.646 6.38 0.826 2.431 1.24 5.092 1.24 7.984v0.766c0 2.868-0.413 5.529-1.24 7.984-0.826 2.431-2.042 4.557-3.646 6.38-1.58 1.799-3.524 3.196-5.833 4.193s-4.958 1.495-7.948 1.495-5.651-0.498-7.984-1.495c-2.309-0.997-4.266-2.394-5.87-4.193-1.58-1.823-2.783-3.95-3.609-6.38-0.826-2.455-1.24-5.116-1.24-7.984zM88.187 15.911v0.766c0 1.653 0.146 3.196 0.437 4.63s0.753 2.698 1.385 3.792c0.656 1.069 1.507 1.908 2.552 2.516s2.321 0.911 3.828 0.911c1.458 0 2.71-0.304 3.755-0.911s1.884-1.446 2.516-2.516c0.632-1.094 1.094-2.358 1.385-3.792 0.316-1.434 0.474-2.977 0.474-4.63v-0.766c0-1.604-0.158-3.111-0.474-4.521-0.292-1.434-0.766-2.698-1.422-3.792-0.632-1.118-1.471-1.993-2.516-2.625s-2.309-0.948-3.792-0.948c-1.483 0-2.747 0.316-3.792 0.948-1.021 0.632-1.859 1.507-2.516 2.625-0.632 1.094-1.094 2.358-1.385 3.792-0.292 1.41-0.437 2.917-0.437 4.521zM146.336 26.557v-30.005h10.5v39.448h-9.88l-0.62-9.443zM147.503 18.464l3.099-0.073c0 2.625-0.303 5.068-0.911 7.328-0.608 2.236-1.52 4.181-2.735 5.833-1.215 1.628-2.747 2.904-4.593 3.828-1.848 0.899-4.023 1.349-6.527 1.349-1.92 0-3.694-0.267-5.323-0.802-1.604-0.559-2.99-1.422-4.156-2.589-1.142-1.191-2.042-2.71-2.698-4.557-0.632-1.871-0.948-4.12-0.948-6.745v-25.484h10.5v25.557c0 1.167 0.134 2.151 0.401 2.953 0.292 0.802 0.693 1.458 1.204 1.969 0.509 0.51 1.105 0.875 1.785 1.094 0.705 0.219 1.483 0.328 2.333 0.328 2.164 0 3.865-0.437 5.105-1.312 1.263-0.875 2.151-2.066 2.661-3.573 0.535-1.531 0.801-3.233 0.801-5.104zM176.851 5.156v30.844h-10.5v-39.448h9.88l0.62 8.604zM188.736-3.703l-0.183 9.734c-0.511-0.073-1.131-0.134-1.859-0.182-0.705-0.073-1.349-0.109-1.933-0.109-1.483 0-2.771 0.194-3.864 0.583-1.069 0.365-1.969 0.911-2.697 1.641-0.705 0.729-1.24 1.616-1.605 2.661-0.34 1.045-0.535 2.236-0.583 3.573l-2.115-0.656c0-2.552 0.255-4.898 0.765-7.036 0.511-2.163 1.252-4.047 2.224-5.651 0.997-1.604 2.212-2.844 3.647-3.719 1.433-0.875 3.075-1.313 4.921-1.313 0.583 0 1.179 0.049 1.787 0.146 0.608 0.073 1.105 0.182 1.495 0.328zM236.712 12.703h-13.636l-0.072-7.51h11.448c2.017 0 3.669-0.255 4.957-0.766 1.289-0.535 2.249-1.3 2.881-2.297 0.656-1.021 0.984-2.26 0.984-3.719 0-1.653-0.316-2.99-0.948-4.010-0.608-1.021-1.568-1.762-2.88-2.224-1.288-0.462-2.953-0.693-4.995-0.693h-7.584v44.516h-10.937v-53.083h18.521c3.087 0 5.845 0.292 8.276 0.875 2.455 0.583 4.533 1.47 6.235 2.661s3.001 2.698 3.9 4.521c0.9 1.799 1.349 3.938 1.349 6.417 0 2.188-0.499 4.205-1.495 6.052-0.972 1.847-2.516 3.354-4.631 4.521-2.089 1.167-4.824 1.811-8.203 1.932l-3.172 2.807zM236.239 36h-16.152l4.267-8.531h11.885c1.92 0 3.487-0.304 4.703-0.911 1.215-0.632 2.115-1.483 2.697-2.552 0.584-1.069 0.876-2.297 0.876-3.682 0-1.556-0.268-2.905-0.803-4.047-0.511-1.142-1.337-2.017-2.479-2.625-1.143-0.632-2.649-0.948-4.521-0.948h-10.536l0.072-7.51h13.125l2.516 2.953c3.232-0.049 5.833 0.523 7.801 1.714 1.993 1.167 3.44 2.686 4.339 4.557 0.924 1.871 1.385 3.877 1.385 6.016 0 3.403-0.741 6.271-2.224 8.604-1.483 2.309-3.657 4.047-6.525 5.214-2.844 1.167-6.32 1.75-10.427 1.75zM287.789 26.557v-30.005h10.5v39.448h-9.881l-0.619-9.443zM288.956 18.464l3.099-0.073c0 2.625-0.304 5.068-0.912 7.328-0.608 2.236-1.519 4.181-2.735 5.833-1.215 1.628-2.745 2.904-4.593 3.828-1.847 0.899-4.023 1.349-6.525 1.349-1.921 0-3.695-0.267-5.324-0.802-1.604-0.559-2.989-1.422-4.156-2.589-1.143-1.191-2.041-2.71-2.697-4.557-0.632-1.871-0.948-4.12-0.948-6.745v-25.484h10.5v25.557c0 1.167 0.133 2.151 0.401 2.953 0.291 0.802 0.692 1.458 1.203 1.969s1.105 0.875 1.787 1.094c0.704 0.219 1.483 0.328 2.333 0.328 2.163 0 3.864-0.437 5.104-1.312 1.264-0.875 2.151-2.066 2.661-3.573 0.535-1.531 0.803-3.233 0.803-5.104zM329.131 25.099c0-0.753-0.219-1.434-0.656-2.042s-1.252-1.167-2.443-1.677c-1.167-0.535-2.856-1.021-5.068-1.458-1.993-0.437-3.852-0.984-5.577-1.641-1.701-0.681-3.184-1.495-4.448-2.443-1.24-0.948-2.212-2.066-2.917-3.354-0.704-1.313-1.057-2.807-1.057-4.484 0-1.653 0.353-3.208 1.057-4.667 0.729-1.458 1.763-2.747 3.099-3.865 1.361-1.142 3.015-2.030 4.959-2.661 1.969-0.656 4.181-0.984 6.636-0.984 3.427 0 6.368 0.547 8.823 1.641 2.479 1.094 4.375 2.601 5.688 4.521 1.336 1.896 2.004 4.059 2.004 6.49h-10.5c0-1.021-0.219-1.932-0.656-2.734-0.413-0.826-1.069-1.47-1.968-1.932-0.876-0.486-2.017-0.729-3.428-0.729-1.167 0-2.175 0.207-3.025 0.62-0.851 0.389-1.507 0.924-1.969 1.604-0.437 0.656-0.656 1.385-0.656 2.188 0 0.608 0.121 1.155 0.365 1.641 0.267 0.462 0.692 0.887 1.276 1.276 0.583 0.389 1.336 0.753 2.26 1.094 0.948 0.316 2.115 0.608 3.5 0.875 2.844 0.583 5.384 1.349 7.62 2.297 2.236 0.924 4.011 2.187 5.323 3.792 1.312 1.58 1.969 3.658 1.969 6.234 0 1.75-0.389 3.354-1.167 4.813-0.779 1.458-1.896 2.734-3.355 3.828-1.459 1.069-3.208 1.908-5.251 2.516-2.017 0.583-4.289 0.875-6.817 0.875-3.669 0-6.781-0.656-9.333-1.969-2.528-1.313-4.448-2.977-5.76-4.995-1.288-2.042-1.932-4.132-1.932-6.271h9.952c0.049 1.434 0.413 2.589 1.095 3.464 0.704 0.875 1.592 1.507 2.661 1.896 1.093 0.389 2.272 0.583 3.536 0.583 1.361 0 2.492-0.182 3.391-0.547 0.9-0.389 1.58-0.899 2.041-1.531 0.487-0.656 0.729-1.41 0.729-2.26zM358.733-3.448v39.448h-10.536v-39.448h10.536zM347.541-13.729c0-1.531 0.535-2.795 1.604-3.792s2.503-1.495 4.301-1.495c1.775 0 3.197 0.498 4.267 1.495 1.093 0.997 1.64 2.26 1.64 3.792s-0.547 2.795-1.64 3.792c-1.069 0.997-2.492 1.495-4.267 1.495-1.799 0-3.232-0.498-4.301-1.495s-1.604-2.26-1.604-3.792zM379.185 4.974v31.026h-10.5v-39.448h9.844l0.656 8.422zM377.655 14.891h-2.844c0-2.917 0.376-5.542 1.129-7.875 0.755-2.358 1.812-4.363 3.172-6.016 1.361-1.677 2.977-2.953 4.849-3.828 1.896-0.899 4.011-1.349 6.344-1.349 1.847 0 3.536 0.267 5.068 0.802 1.531 0.535 2.843 1.385 3.937 2.552 1.117 1.167 1.968 2.71 2.552 4.63 0.608 1.92 0.911 4.266 0.911 7.036v25.156h-10.572v-25.193c0-1.75-0.244-3.111-0.729-4.083-0.487-0.972-1.203-1.653-2.151-2.042-0.924-0.413-2.067-0.62-3.428-0.62-1.409 0-2.637 0.279-3.681 0.839-1.021 0.559-1.872 1.337-2.552 2.333-0.657 0.972-1.155 2.115-1.496 3.427-0.34 1.313-0.509 2.722-0.509 4.229zM430.408 36.729c-3.063 0-5.809-0.486-8.24-1.458-2.431-0.997-4.496-2.37-6.197-4.12-1.677-1.75-2.965-3.78-3.865-6.089-0.899-2.333-1.348-4.813-1.348-7.437v-1.458c0-2.99 0.425-5.724 1.276-8.203s2.065-4.63 3.645-6.453c1.604-1.823 3.548-3.22 5.833-4.193 2.285-0.997 4.861-1.495 7.729-1.495 2.795 0 5.275 0.462 7.437 1.385s3.975 2.236 5.432 3.938c1.483 1.701 2.601 3.743 3.355 6.125 0.753 2.358 1.131 4.983 1.131 7.875v4.375h-31.355v-7h21.036v-0.802c0-1.458-0.267-2.759-0.801-3.901-0.511-1.167-1.288-2.090-2.333-2.771s-2.383-1.021-4.011-1.021c-1.385 0-2.576 0.304-3.573 0.911-0.996 0.608-1.811 1.458-2.443 2.552-0.608 1.094-1.069 2.382-1.385 3.865-0.292 1.458-0.437 3.063-0.437 4.812v1.458c0 1.58 0.219 3.038 0.656 4.375 0.463 1.337 1.107 2.491 1.932 3.464 0.851 0.972 1.872 1.726 3.063 2.26 1.216 0.535 2.589 0.802 4.12 0.802 1.896 0 3.659-0.365 5.287-1.094 1.653-0.753 3.075-1.884 4.265-3.391l5.104 5.542c-0.827 1.191-1.956 2.333-3.391 3.427-1.409 1.094-3.111 1.993-5.104 2.698-1.993 0.681-4.265 1.021-6.817 1.021zM475.396 25.099c0-0.753-0.219-1.434-0.656-2.042s-1.252-1.167-2.443-1.677c-1.167-0.535-2.856-1.021-5.068-1.458-1.993-0.437-3.852-0.984-5.579-1.641-1.701-0.681-3.184-1.495-4.448-2.443-1.239-0.948-2.211-2.066-2.916-3.354-0.705-1.313-1.057-2.807-1.057-4.484 0-1.653 0.352-3.208 1.057-4.667 0.729-1.458 1.763-2.747 3.099-3.865 1.361-1.142 3.015-2.030 4.959-2.661 1.968-0.656 4.18-0.984 6.635-0.984 3.428 0 6.369 0.547 8.824 1.641 2.479 1.094 4.375 2.601 5.687 4.521 1.337 1.896 2.005 4.059 2.005 6.49h-10.5c0-1.021-0.219-1.932-0.656-2.734-0.413-0.826-1.069-1.47-1.969-1.932-0.875-0.486-2.017-0.729-3.427-0.729-1.167 0-2.175 0.207-3.025 0.62-0.851 0.389-1.508 0.924-1.969 1.604-0.437 0.656-0.656 1.385-0.656 2.188 0 0.608 0.121 1.155 0.364 1.641 0.268 0.462 0.693 0.887 1.276 1.276 0.584 0.389 1.337 0.753 2.261 1.094 0.948 0.316 2.115 0.608 3.5 0.875 2.843 0.583 5.383 1.349 7.619 2.297 2.237 0.924 4.011 2.187 5.324 3.792 1.312 1.58 1.968 3.658 1.968 6.234 0 1.75-0.388 3.354-1.167 4.813-0.777 1.458-1.896 2.734-3.353 3.828-1.459 1.069-3.209 1.908-5.251 2.516-2.017 0.583-4.289 0.875-6.817 0.875-3.671 0-6.781-0.656-9.333-1.969-2.528-1.313-4.448-2.977-5.76-4.995-1.289-2.042-1.933-4.132-1.933-6.271h9.953c0.049 1.434 0.413 2.589 1.093 3.464 0.705 0.875 1.592 1.507 2.663 1.896 1.093 0.389 2.272 0.583 3.536 0.583 1.361 0 2.491-0.182 3.391-0.547 0.899-0.389 1.58-0.899 2.041-1.531 0.487-0.656 0.729-1.41 0.729-2.26zM515.244 25.099c0-0.753-0.219-1.434-0.657-2.042-0.437-0.608-1.251-1.167-2.443-1.677-1.167-0.535-2.855-1.021-5.067-1.458-1.993-0.437-3.853-0.984-5.579-1.641-1.701-0.681-3.184-1.495-4.448-2.443-1.24-0.948-2.212-2.066-2.916-3.354-0.705-1.313-1.057-2.807-1.057-4.484 0-1.653 0.352-3.208 1.057-4.667 0.729-1.458 1.761-2.747 3.099-3.865 1.361-1.142 3.013-2.030 4.959-2.661 1.968-0.656 4.18-0.984 6.635-0.984 3.427 0 6.368 0.547 8.823 1.641 2.48 1.094 4.376 2.601 5.688 4.521 1.337 1.896 2.005 4.059 2.005 6.49h-10.5c0-1.021-0.219-1.932-0.656-2.734-0.413-0.826-1.069-1.47-1.969-1.932-0.875-0.486-2.017-0.729-3.427-0.729-1.167 0-2.176 0.207-3.027 0.62-0.851 0.389-1.507 0.924-1.968 1.604-0.437 0.656-0.656 1.385-0.656 2.188 0 0.608 0.121 1.155 0.364 1.641 0.268 0.462 0.693 0.887 1.276 1.276 0.584 0.389 1.337 0.753 2.26 1.094 0.948 0.316 2.115 0.608 3.5 0.875 2.844 0.583 5.384 1.349 7.62 2.297 2.236 0.924 4.011 2.187 5.323 3.792 1.313 1.58 1.969 3.658 1.969 6.234 0 1.75-0.389 3.354-1.167 4.813s-1.896 2.734-3.355 3.828c-1.457 1.069-3.208 1.908-5.249 2.516-2.017 0.583-4.291 0.875-6.817 0.875-3.671 0-6.781-0.656-9.333-1.969-2.528-1.313-4.448-2.977-5.761-4.995-1.288-2.042-1.932-4.132-1.932-6.271h9.953c0.048 1.434 0.413 2.589 1.093 3.464 0.705 0.875 1.592 1.507 2.661 1.896 1.095 0.389 2.273 0.583 3.537 0.583 1.36 0 2.491-0.182 3.391-0.547 0.899-0.389 1.579-0.899 2.041-1.531 0.485-0.656 0.729-1.41 0.729-2.26z"></path>
<path fill="#2e2f42" style="fill: var(--color4, #2e2f42)" opacity="0.4" d="M-741.333-466.667h1920v901.333h-1920v-901.333z"></path>
<path fill="#fcfcfc" style="fill: var(--color5, #fcfcfc)" d="M-48-360h533.333c2.946 0 5.333 2.388 5.333 5.333v768c0 2.946-2.388 5.333-5.333 5.333h-533.333c-2.946 0-5.333-2.388-5.333-5.333v-768c0-2.946 2.388-5.333 5.333-5.333z"></path>
<path fill="none" stroke="#2e2f42" style="stroke: var(--color4, #2e2f42)" stroke-linejoin="miter" stroke-linecap="butt" stroke-miterlimit="4" stroke-width="1.3333" d="M-16-10h469.333c2.577 0 4.667 2.089 4.667 4.667v42.667c0 2.577-2.089 4.667-4.667 4.667h-469.333c-2.577 0-4.667-2.089-4.667-4.667v-42.667c0-2.577 2.089-4.667 4.667-4.667z"></path>
<path fill="#2e2f42" style="fill: var(--color4, #2e2f42)" d="M20 8h-16c-1.1 0-1.99 0.9-1.99 2l-0.010 12c0 1.1 0.9 2 2 2h16c1.1 0 2-0.9 2-2v-12c0-1.1-0.9-2-2-2zM19.6 12.25l-7.070 4.42c-0.32 0.2-0.74 0.2-1.060 0l-7.070-4.42c-0.25-0.16-0.4-0.43-0.4-0.72 0-0.67 0.73-1.070 1.3-0.72l6.7 4.19 6.7-4.19c0.57-0.35 1.3 0.050 1.3 0.72 0 0.29-0.15 0.56-0.4 0.72z"></path>
</symbol>
<symbol id="icon-phone-black" viewBox="0 0 24 32">
<path fill="#e5e5e5" style="fill: var(--color1, #e5e5e5)" d="M0 0h24v32h-24v-32z"></path>
<path fill="#fff" style="fill: var(--color2, #fff)" d="M-741.333-378.667h1920v896h-1920v-896z"></path>
<path fill="#000" style="fill: var(--color3, #000)" d="M-741.333-282.667h1920v800h-1920v-800z"></path>
<path fill="#2e2f42" style="fill: var(--color4, #2e2f42)" opacity="0.7" d="M-741.333-282.667h1920v800h-1920v-800z"></path>
<path fill="#fff" style="fill: var(--color2, #fff)" d="M-70.289 35.469v8.531h-28.255v-8.531h28.255zM-94.971-9.083v53.083h-10.938v-53.083h10.938zM-73.971 12.536v8.312h-24.573v-8.312h24.573zM-70.325-9.083v8.568h-28.219v-8.568h28.219zM-50.348 44h-10.573v-42.948c0-2.99 0.583-5.505 1.75-7.547 1.191-2.066 2.856-3.622 4.995-4.667 2.163-1.069 4.727-1.604 7.693-1.604 0.972 0 1.908 0.073 2.807 0.219 0.899 0.122 1.774 0.28 2.625 0.474l-0.109 7.911c-0.462-0.122-0.948-0.207-1.458-0.255s-1.106-0.073-1.787-0.073c-1.264 0-2.345 0.219-3.245 0.656-0.875 0.413-1.543 1.033-2.005 1.859s-0.693 1.835-0.693 3.026v42.948zM-42.473 4.552v7.438h-24.318v-7.438h24.318zM-22.094 44h-10.573v-42.948c0-2.99 0.583-5.505 1.75-7.547 1.191-2.066 2.856-3.622 4.995-4.667 2.163-1.069 4.727-1.604 7.693-1.604 0.972 0 1.908 0.073 2.807 0.219 0.899 0.122 1.774 0.28 2.625 0.474l-0.109 7.911c-0.462-0.122-0.948-0.207-1.458-0.255s-1.106-0.073-1.786-0.073c-1.264 0-2.346 0.219-3.245 0.656-0.875 0.413-1.543 1.033-2.005 1.859s-0.693 1.835-0.693 3.026v42.948zM-14.219 4.552v7.438h-24.318v-7.438h24.318zM10.061 44.729c-3.063 0-5.809-0.486-8.24-1.458-2.431-0.997-4.497-2.37-6.198-4.12-1.677-1.75-2.965-3.78-3.865-6.089-0.899-2.333-1.349-4.813-1.349-7.437v-1.458c0-2.99 0.425-5.724 1.276-8.203s2.066-4.63 3.646-6.453c1.604-1.823 3.549-3.22 5.833-4.193 2.285-0.997 4.861-1.495 7.729-1.495 2.795 0 5.274 0.462 7.437 1.385s3.974 2.236 5.432 3.937c1.483 1.701 2.601 3.743 3.354 6.125 0.753 2.358 1.13 4.983 1.13 7.875v4.375h-31.354v-7h21.037v-0.802c0-1.458-0.267-2.759-0.802-3.901-0.51-1.167-1.288-2.090-2.333-2.771s-2.382-1.021-4.010-1.021c-1.385 0-2.576 0.304-3.573 0.911s-1.811 1.458-2.443 2.552c-0.608 1.094-1.069 2.382-1.385 3.865-0.292 1.458-0.438 3.063-0.438 4.813v1.458c0 1.58 0.219 3.038 0.656 4.375 0.462 1.337 1.106 2.491 1.932 3.464 0.851 0.972 1.872 1.726 3.063 2.26 1.215 0.535 2.589 0.802 4.12 0.802 1.896 0 3.658-0.365 5.287-1.094 1.653-0.753 3.075-1.884 4.266-3.391l5.104 5.542c-0.826 1.191-1.957 2.333-3.391 3.427-1.41 1.094-3.111 1.993-5.104 2.698-1.993 0.681-4.266 1.021-6.818 1.021zM50.018 36.526c1.288 0 2.431-0.243 3.427-0.729 0.997-0.511 1.774-1.215 2.333-2.115 0.583-0.924 0.887-2.005 0.911-3.245h9.88c-0.024 2.771-0.766 5.238-2.224 7.401-1.458 2.139-3.415 3.828-5.87 5.068-2.455 1.215-5.201 1.823-8.24 1.823-3.062 0-5.736-0.51-8.021-1.531-2.26-1.021-4.144-2.431-5.651-4.229-1.507-1.823-2.637-3.938-3.391-6.344-0.753-2.431-1.13-5.031-1.13-7.802v-1.057c0-2.795 0.377-5.396 1.13-7.802 0.753-2.431 1.884-4.545 3.391-6.344 1.507-1.823 3.391-3.245 5.651-4.266s4.91-1.531 7.948-1.531c3.233 0 6.064 0.62 8.495 1.859 2.455 1.24 4.375 3.014 5.76 5.323 1.41 2.285 2.127 4.995 2.151 8.13h-9.88c-0.024-1.313-0.304-2.503-0.839-3.573-0.51-1.069-1.264-1.92-2.26-2.552-0.972-0.656-2.175-0.984-3.609-0.984-1.531 0-2.783 0.328-3.755 0.984-0.972 0.632-1.726 1.507-2.26 2.625-0.535 1.094-0.911 2.345-1.13 3.755-0.195 1.385-0.292 2.844-0.292 4.375v1.057c0 1.531 0.097 3.002 0.292 4.411s0.559 2.661 1.094 3.755c0.559 1.094 1.325 1.957 2.297 2.589s2.236 0.948 3.792 0.948zM93.475 4.552v7.438h-22.969v-7.438h22.969zM76.193-5.182h10.5v37.297c0 1.142 0.146 2.017 0.437 2.625 0.316 0.608 0.778 1.033 1.385 1.276 0.608 0.219 1.373 0.328 2.297 0.328 0.656 0 1.24-0.024 1.75-0.073 0.535-0.073 0.984-0.146 1.349-0.219l0.036 7.729c-0.899 0.292-1.871 0.523-2.917 0.693s-2.2 0.255-3.463 0.255c-2.309 0-4.326-0.377-6.052-1.13-1.701-0.778-3.014-2.017-3.937-3.719s-1.385-3.938-1.385-6.708v-38.354zM112.030 4.552v39.448h-10.536v-39.448h10.536zM100.838-5.729c0-1.531 0.535-2.795 1.604-3.792s2.503-1.495 4.302-1.495c1.774 0 3.196 0.498 4.266 1.495 1.094 0.997 1.641 2.26 1.641 3.792s-0.547 2.795-1.641 3.792c-1.069 0.997-2.491 1.495-4.266 1.495-1.799 0-3.233-0.498-4.302-1.495s-1.604-2.26-1.604-3.792zM135.617 36.344l8.751-31.792h10.973l-13.307 39.448h-6.636l0.219-7.656zM129.602 4.552l8.786 31.828 0.183 7.62h-6.672l-13.307-39.448h11.010zM179.184 44.729c-3.063 0-5.809-0.486-8.24-1.458-2.431-0.997-4.496-2.37-6.197-4.12-1.677-1.75-2.965-3.78-3.865-6.089-0.899-2.333-1.348-4.813-1.348-7.437v-1.458c0-2.99 0.425-5.724 1.276-8.203s2.065-4.63 3.645-6.453c1.604-1.823 3.548-3.22 5.833-4.193 2.284-0.997 4.861-1.495 7.729-1.495 2.795 0 5.275 0.462 7.437 1.385s3.973 2.236 5.432 3.937c1.483 1.701 2.601 3.743 3.355 6.125 0.753 2.358 1.129 4.983 1.129 7.875v4.375h-31.353v-7h21.036v-0.802c0-1.458-0.267-2.759-0.801-3.901-0.511-1.167-1.289-2.090-2.333-2.771-1.045-0.681-2.383-1.021-4.011-1.021-1.385 0-2.577 0.304-3.573 0.911s-1.811 1.458-2.443 2.552c-0.608 1.094-1.069 2.382-1.385 3.865-0.292 1.458-0.437 3.063-0.437 4.813v1.458c0 1.58 0.219 3.038 0.656 4.375 0.461 1.337 1.105 2.491 1.932 3.464 0.851 0.972 1.872 1.726 3.063 2.26 1.216 0.535 2.589 0.802 4.12 0.802 1.896 0 3.657-0.365 5.287-1.094 1.652-0.753 3.075-1.884 4.265-3.391l5.104 5.542c-0.827 1.191-1.956 2.333-3.391 3.427-1.409 1.094-3.111 1.993-5.104 2.698-1.993 0.681-4.265 1.021-6.817 1.021zM251.223 30.109c0-0.948-0.147-1.799-0.437-2.552-0.268-0.778-0.779-1.483-1.532-2.115-0.753-0.656-1.811-1.3-3.172-1.932-1.36-0.632-3.123-1.288-5.285-1.969-2.407-0.778-4.692-1.653-6.855-2.625-2.139-0.972-4.035-2.102-5.688-3.391-1.628-1.312-2.916-2.832-3.864-4.557-0.924-1.726-1.385-3.731-1.385-6.016 0-2.212 0.485-4.217 1.459-6.016 0.972-1.823 2.333-3.378 4.083-4.667 1.751-1.313 3.816-2.321 6.197-3.026 2.407-0.705 5.044-1.057 7.912-1.057 3.913 0 7.328 0.705 10.245 2.115 2.916 1.41 5.176 3.342 6.781 5.797 1.628 2.455 2.443 5.262 2.443 8.422h-10.865c0-1.556-0.328-2.917-0.984-4.083-0.632-1.191-1.604-2.127-2.917-2.807-1.288-0.681-2.916-1.021-4.885-1.021-1.896 0-3.475 0.292-4.739 0.875-1.264 0.559-2.212 1.325-2.844 2.297-0.632 0.948-0.948 2.017-0.948 3.208 0 0.899 0.219 1.714 0.656 2.443 0.461 0.729 1.143 1.41 2.041 2.042 0.9 0.632 2.005 1.227 3.319 1.786 1.312 0.559 2.831 1.106 4.557 1.641 2.892 0.875 5.432 1.859 7.619 2.953 2.212 1.094 4.060 2.321 5.543 3.682s2.6 2.905 3.353 4.63 1.131 3.682 1.131 5.87c0 2.309-0.449 4.375-1.349 6.198-0.899 1.823-2.199 3.366-3.901 4.63-1.701 1.264-3.731 2.224-6.088 2.88s-4.995 0.984-7.912 0.984c-2.624 0-5.213-0.34-7.765-1.021-2.552-0.705-4.873-1.762-6.963-3.172-2.067-1.41-3.719-3.208-4.959-5.396s-1.86-4.776-1.86-7.766h10.975c0 1.653 0.255 3.050 0.765 4.193s1.228 2.066 2.151 2.771c0.948 0.705 2.067 1.215 3.355 1.531 1.312 0.316 2.747 0.474 4.301 0.474 1.896 0 3.452-0.267 4.667-0.802 1.24-0.535 2.152-1.276 2.735-2.224 0.608-0.948 0.912-2.017 0.912-3.208zM268.757 24.677v-0.766c0-2.892 0.413-5.554 1.24-7.984 0.827-2.455 2.029-4.582 3.609-6.38s3.524-3.196 5.833-4.193c2.309-1.021 4.959-1.531 7.948-1.531s5.651 0.51 7.984 1.531c2.333 0.997 4.291 2.394 5.869 4.193 1.605 1.799 2.82 3.925 3.647 6.38 0.827 2.431 1.239 5.092 1.239 7.984v0.766c0 2.868-0.412 5.529-1.239 7.984-0.827 2.431-2.041 4.557-3.647 6.38-1.579 1.799-3.524 3.196-5.833 4.193-2.308 0.997-4.957 1.495-7.948 1.495-2.989 0-5.651-0.498-7.984-1.495-2.309-0.997-4.265-2.394-5.869-4.193-1.58-1.823-2.783-3.95-3.609-6.38-0.827-2.455-1.24-5.116-1.24-7.984zM279.257 23.911v0.766c0 1.653 0.145 3.196 0.437 4.63s0.753 2.698 1.385 3.792c0.656 1.069 1.508 1.908 2.552 2.516 1.045 0.608 2.321 0.911 3.828 0.911 1.459 0 2.711-0.304 3.756-0.911s1.884-1.446 2.516-2.516c0.632-1.094 1.093-2.358 1.385-3.792 0.316-1.434 0.473-2.977 0.473-4.63v-0.766c0-1.604-0.157-3.111-0.473-4.521-0.292-1.434-0.767-2.698-1.423-3.792-0.632-1.118-1.471-1.993-2.515-2.625-1.045-0.632-2.309-0.948-3.792-0.948s-2.747 0.316-3.792 0.948c-1.021 0.632-1.86 1.507-2.516 2.625-0.632 1.094-1.093 2.358-1.385 3.792-0.292 1.41-0.437 2.917-0.437 4.521zM325.157-12v56h-10.537v-56h10.537zM358.661 34.557v-30.005h10.5v39.448h-9.881l-0.619-9.443zM359.828 26.464l3.099-0.073c0 2.625-0.304 5.068-0.912 7.328-0.607 2.236-1.519 4.181-2.735 5.833-1.215 1.628-2.745 2.904-4.593 3.828-1.847 0.899-4.023 1.349-6.525 1.349-1.92 0-3.695-0.267-5.324-0.802-1.604-0.559-2.989-1.422-4.156-2.589-1.143-1.191-2.041-2.71-2.697-4.557-0.632-1.871-0.948-4.12-0.948-6.745v-25.484h10.5v25.557c0 1.167 0.133 2.151 0.401 2.953 0.291 0.802 0.692 1.458 1.203 1.969s1.105 0.875 1.787 1.094c0.704 0.219 1.483 0.328 2.333 0.328 2.163 0 3.864-0.437 5.104-1.312 1.264-0.875 2.151-2.066 2.661-3.573 0.535-1.531 0.803-3.233 0.803-5.104zM397.997 4.552v7.438h-22.968v-7.438h22.968zM380.716-5.182h10.5v37.297c0 1.142 0.147 2.017 0.439 2.625 0.316 0.608 0.777 1.033 1.385 1.276 0.607 0.219 1.373 0.328 2.296 0.328 0.657 0 1.24-0.024 1.751-0.073 0.535-0.073 0.984-0.146 1.349-0.219l0.036 7.729c-0.9 0.292-1.872 0.523-2.917 0.693-1.044 0.17-2.199 0.255-3.463 0.255-2.309 0-4.327-0.377-6.052-1.13-1.701-0.778-3.015-2.017-3.937-3.719-0.924-1.701-1.387-3.938-1.387-6.708v-38.354zM416.553 4.552v39.448h-10.536v-39.448h10.536zM405.361-5.729c0-1.531 0.535-2.795 1.604-3.792s2.503-1.495 4.301-1.495c1.775 0 3.197 0.498 4.267 1.495 1.093 0.997 1.64 2.26 1.64 3.792s-0.547 2.795-1.64 3.792c-1.069 0.997-2.492 1.495-4.267 1.495-1.799 0-3.232-0.498-4.301-1.495s-1.604-2.26-1.604-3.792zM425.047 24.677v-0.766c0-2.892 0.413-5.554 1.24-7.984 0.827-2.455 2.029-4.582 3.609-6.38s3.524-3.196 5.833-4.193c2.309-1.021 4.959-1.531 7.948-1.531s5.651 0.51 7.984 1.531c2.333 0.997 4.291 2.394 5.871 4.193 1.604 1.799 2.819 3.925 3.645 6.38 0.827 2.431 1.24 5.092 1.24 7.984v0.766c0 2.868-0.413 5.529-1.24 7.984-0.827 2.431-2.041 4.557-3.645 6.38-1.58 1.799-3.525 3.196-5.833 4.193-2.309 0.997-4.959 1.495-7.948 1.495-2.991 0-5.652-0.498-7.985-1.495-2.308-0.997-4.265-2.394-5.869-4.193-1.58-1.823-2.783-3.95-3.609-6.38-0.827-2.455-1.24-5.116-1.24-7.984zM435.547 23.911v0.766c0 1.653 0.147 3.196 0.437 4.63 0.292 1.434 0.755 2.698 1.387 3.792 0.656 1.069 1.507 1.908 2.552 2.516 1.044 0.608 2.32 0.911 3.828 0.911 1.457 0 2.709-0.304 3.755-0.911s1.884-1.446 2.516-2.516c0.632-1.094 1.093-2.358 1.385-3.792 0.316-1.434 0.473-2.977 0.473-4.63v-0.766c0-1.604-0.157-3.111-0.473-4.521-0.292-1.434-0.765-2.698-1.423-3.792-0.631-1.118-1.469-1.993-2.515-2.625s-2.309-0.948-3.792-0.948-2.747 0.316-3.792 0.948c-1.020 0.632-1.859 1.507-2.515 2.625-0.632 1.094-1.095 2.358-1.387 3.792-0.291 1.41-0.437 2.917-0.437 4.521zM480.644 12.974v31.026h-10.5v-39.448h9.844l0.656 8.422zM479.113 22.891h-2.844c0-2.917 0.377-5.542 1.131-7.875 0.753-2.358 1.811-4.363 3.172-6.016 1.361-1.677 2.977-2.953 4.848-3.828 1.896-0.899 4.011-1.349 6.344-1.349 1.848 0 3.537 0.267 5.068 0.802 1.532 0.535 2.844 1.385 3.937 2.552 1.119 1.167 1.969 2.71 2.552 4.63 0.608 1.92 0.912 4.266 0.912 7.036v25.156h-10.573v-25.193c0-1.75-0.243-3.111-0.729-4.083-0.485-0.972-1.203-1.653-2.151-2.042-0.924-0.413-2.065-0.62-3.427-0.62-1.411 0-2.637 0.28-3.683 0.839-1.021 0.559-1.872 1.337-2.552 2.333-0.656 0.972-1.155 2.115-1.495 3.427s-0.511 2.722-0.511 4.229zM535.039 33.099c0-0.753-0.219-1.434-0.656-2.042s-1.252-1.167-2.443-1.677c-1.167-0.535-2.856-1.021-5.068-1.458-1.993-0.437-3.852-0.984-5.577-1.641-1.701-0.681-3.184-1.495-4.448-2.443-1.24-0.948-2.212-2.066-2.917-3.354-0.704-1.313-1.057-2.807-1.057-4.484 0-1.653 0.353-3.208 1.057-4.667 0.729-1.458 1.763-2.747 3.099-3.865 1.361-1.142 3.015-2.029 4.959-2.661 1.969-0.656 4.181-0.984 6.636-0.984 3.427 0 6.368 0.547 8.823 1.641 2.479 1.094 4.375 2.601 5.688 4.521 1.336 1.896 2.004 4.059 2.004 6.49h-10.5c0-1.021-0.219-1.932-0.656-2.734-0.413-0.826-1.069-1.47-1.968-1.932-0.876-0.486-2.017-0.729-3.428-0.729-1.167 0-2.175 0.207-3.025 0.62-0.851 0.389-1.507 0.924-1.969 1.604-0.437 0.656-0.656 1.385-0.656 2.188 0 0.608 0.121 1.155 0.365 1.641 0.267 0.462 0.692 0.887 1.276 1.276 0.583 0.389 1.336 0.753 2.26 1.094 0.948 0.316 2.115 0.608 3.5 0.875 2.844 0.583 5.384 1.349 7.62 2.297 2.236 0.924 4.011 2.187 5.323 3.792 1.312 1.58 1.968 3.658 1.968 6.234 0 1.75-0.388 3.354-1.167 4.813-0.777 1.458-1.895 2.734-3.353 3.828-1.459 1.069-3.208 1.908-5.251 2.516-2.017 0.583-4.289 0.875-6.817 0.875-3.671 0-6.781-0.656-9.333-1.969-2.528-1.313-4.448-2.977-5.76-4.995-1.288-2.042-1.932-4.132-1.932-6.271h9.952c0.049 1.434 0.413 2.589 1.095 3.464 0.704 0.875 1.592 1.507 2.661 1.896 1.093 0.389 2.272 0.583 3.536 0.583 1.361 0 2.492-0.182 3.391-0.547 0.9-0.389 1.58-0.899 2.041-1.531 0.487-0.656 0.729-1.41 0.729-2.26zM-73.389 124h-10.573v-42.948c0-2.99 0.583-5.505 1.75-7.547 1.191-2.066 2.856-3.621 4.995-4.667 2.163-1.069 4.727-1.604 7.693-1.604 0.972 0 1.908 0.073 2.807 0.219 0.899 0.122 1.774 0.28 2.625 0.474l-0.109 7.911c-0.462-0.121-0.948-0.207-1.458-0.255s-1.106-0.073-1.786-0.073c-1.264 0-2.345 0.219-3.245 0.656-0.875 0.413-1.543 1.033-2.005 1.859s-0.693 1.835-0.693 3.026v42.948zM-65.514 84.552v7.437h-24.318v-7.437h24.318zM-60.193 104.677v-0.766c0-2.892 0.413-5.554 1.24-7.984 0.826-2.455 2.029-4.582 3.609-6.38s3.524-3.196 5.833-4.193c2.309-1.021 4.958-1.531 7.948-1.531s5.651 0.51 7.984 1.531c2.333 0.997 4.29 2.394 5.87 4.193 1.604 1.799 2.819 3.925 3.646 6.38 0.826 2.431 1.24 5.092 1.24 7.984v0.766c0 2.868-0.413 5.529-1.24 7.984-0.826 2.431-2.042 4.557-3.646 6.38-1.58 1.799-3.524 3.196-5.833 4.193s-4.958 1.495-7.948 1.495c-2.99 0-5.651-0.498-7.984-1.495-2.309-0.997-4.266-2.394-5.87-4.193-1.58-1.823-2.783-3.95-3.609-6.38-0.826-2.455-1.24-5.116-1.24-7.984zM-49.693 103.911v0.766c0 1.653 0.146 3.196 0.437 4.63s0.753 2.698 1.385 3.792c0.656 1.069 1.507 1.908 2.552 2.516s2.321 0.911 3.828 0.911c1.458 0 2.71-0.304 3.755-0.911s1.884-1.446 2.516-2.516c0.632-1.094 1.094-2.358 1.385-3.792 0.316-1.434 0.474-2.977 0.474-4.63v-0.766c0-1.604-0.158-3.111-0.474-4.521-0.292-1.434-0.766-2.698-1.422-3.792-0.632-1.118-1.47-1.993-2.516-2.625s-2.309-0.948-3.792-0.948c-1.483 0-2.747 0.316-3.792 0.948-1.021 0.632-1.859 1.507-2.516 2.625-0.632 1.094-1.094 2.358-1.385 3.792-0.292 1.41-0.437 2.917-0.437 4.521zM-4.377 93.156v30.844h-10.5v-39.448h9.88l0.62 8.604zM7.509 84.297l-0.182 9.734c-0.51-0.073-1.13-0.134-1.859-0.182-0.705-0.073-1.349-0.109-1.932-0.109-1.483 0-2.771 0.194-3.865 0.583-1.069 0.365-1.969 0.911-2.698 1.641-0.705 0.729-1.24 1.616-1.604 2.661-0.34 1.045-0.535 2.236-0.583 3.573l-2.115-0.656c0-2.552 0.255-4.897 0.766-7.036 0.51-2.163 1.252-4.047 2.224-5.651 0.997-1.604 2.212-2.844 3.646-3.719s3.075-1.313 4.922-1.313c0.583 0 1.179 0.049 1.786 0.146 0.608 0.073 1.106 0.182 1.495 0.328zM41.995 70.917l11.083 24.208 11.083-24.208h11.922l-17.464 33.76v19.323h-11.083v-19.323l-17.5-33.76h11.958zM77.687 104.677v-0.766c0-2.892 0.413-5.554 1.24-7.984 0.826-2.455 2.029-4.582 3.609-6.38s3.524-3.196 5.833-4.193c2.309-1.021 4.958-1.531 7.948-1.531s5.651 0.51 7.984 1.531c2.333 0.997 4.29 2.394 5.87 4.193 1.604 1.799 2.819 3.925 3.646 6.38 0.826 2.431 1.24 5.092 1.24 7.984v0.766c0 2.868-0.413 5.529-1.24 7.984-0.826 2.431-2.042 4.557-3.646 6.38-1.58 1.799-3.524 3.196-5.833 4.193s-4.958 1.495-7.948 1.495-5.651-0.498-7.984-1.495c-2.309-0.997-4.266-2.394-5.87-4.193-1.58-1.823-2.783-3.95-3.609-6.38-0.826-2.455-1.24-5.116-1.24-7.984zM88.187 103.911v0.766c0 1.653 0.146 3.196 0.437 4.63s0.753 2.698 1.385 3.792c0.656 1.069 1.507 1.908 2.552 2.516s2.321 0.911 3.828 0.911c1.458 0 2.71-0.304 3.755-0.911s1.884-1.446 2.516-2.516c0.632-1.094 1.094-2.358 1.385-3.792 0.316-1.434 0.474-2.977 0.474-4.63v-0.766c0-1.604-0.158-3.111-0.474-4.521-0.292-1.434-0.766-2.698-1.422-3.792-0.632-1.118-1.471-1.993-2.516-2.625s-2.309-0.948-3.792-0.948c-1.483 0-2.747 0.316-3.792 0.948-1.021 0.632-1.859 1.507-2.516 2.625-0.632 1.094-1.094 2.358-1.385 3.792-0.292 1.41-0.437 2.917-0.437 4.521zM146.336 114.557v-30.005h10.5v39.448h-9.88l-0.62-9.443zM147.503 106.464l3.099-0.073c0 2.625-0.303 5.068-0.911 7.328-0.608 2.236-1.52 4.181-2.735 5.833-1.215 1.628-2.747 2.904-4.593 3.828-1.848 0.899-4.023 1.349-6.527 1.349-1.92 0-3.694-0.267-5.323-0.802-1.604-0.559-2.99-1.422-4.156-2.589-1.142-1.191-2.042-2.71-2.698-4.557-0.632-1.871-0.948-4.12-0.948-6.745v-25.484h10.5v25.557c0 1.167 0.134 2.151 0.401 2.953 0.292 0.802 0.693 1.458 1.204 1.969 0.509 0.51 1.105 0.875 1.785 1.094 0.705 0.219 1.483 0.328 2.333 0.328 2.164 0 3.865-0.437 5.105-1.312 1.263-0.875 2.151-2.066 2.661-3.573 0.535-1.531 0.801-3.233 0.801-5.104zM176.851 93.156v30.844h-10.5v-39.448h9.88l0.62 8.604zM188.736 84.297l-0.183 9.734c-0.511-0.073-1.131-0.134-1.859-0.182-0.705-0.073-1.349-0.109-1.933-0.109-1.483 0-2.771 0.194-3.864 0.583-1.069 0.365-1.969 0.911-2.697 1.641-0.705 0.729-1.24 1.616-1.605 2.661-0.34 1.045-0.535 2.236-0.583 3.573l-2.115-0.656c0-2.552 0.255-4.897 0.765-7.036 0.511-2.163 1.252-4.047 2.224-5.651 0.997-1.604 2.212-2.844 3.647-3.719 1.433-0.875 3.075-1.313 4.921-1.313 0.583 0 1.179 0.049 1.787 0.146 0.608 0.073 1.105 0.182 1.495 0.328zM236.712 100.703h-13.636l-0.072-7.51h11.448c2.017 0 3.669-0.255 4.957-0.766 1.289-0.535 2.249-1.3 2.881-2.297 0.656-1.021 0.984-2.261 0.984-3.719 0-1.653-0.316-2.99-0.948-4.010-0.608-1.021-1.568-1.762-2.88-2.224-1.288-0.462-2.953-0.693-4.995-0.693h-7.584v44.516h-10.937v-53.083h18.521c3.087 0 5.845 0.292 8.276 0.875 2.455 0.583 4.533 1.47 6.235 2.661s3.001 2.698 3.9 4.521c0.9 1.799 1.349 3.937 1.349 6.417 0 2.187-0.499 4.205-1.495 6.052-0.972 1.847-2.516 3.354-4.631 4.521-2.089 1.167-4.824 1.811-8.203 1.932l-3.172 2.807zM236.239 124h-16.152l4.267-8.531h11.885c1.92 0 3.487-0.304 4.703-0.911 1.215-0.632 2.115-1.483 2.697-2.552 0.584-1.069 0.876-2.297 0.876-3.682 0-1.556-0.268-2.905-0.803-4.047-0.511-1.142-1.337-2.017-2.479-2.625-1.143-0.632-2.649-0.948-4.521-0.948h-10.536l0.072-7.51h13.125l2.516 2.953c3.232-0.049 5.833 0.523 7.801 1.713 1.993 1.167 3.44 2.686 4.339 4.557 0.924 1.871 1.385 3.877 1.385 6.016 0 3.403-0.741 6.271-2.224 8.604-1.483 2.309-3.657 4.047-6.525 5.214-2.844 1.167-6.32 1.75-10.427 1.75zM287.789 114.557v-30.005h10.5v39.448h-9.881l-0.619-9.443zM288.956 106.464l3.099-0.073c0 2.625-0.304 5.068-0.912 7.328-0.608 2.236-1.519 4.181-2.735 5.833-1.215 1.628-2.745 2.904-4.593 3.828-1.847 0.899-4.023 1.349-6.525 1.349-1.921 0-3.695-0.267-5.324-0.802-1.604-0.559-2.989-1.422-4.156-2.589-1.143-1.191-2.041-2.71-2.697-4.557-0.632-1.871-0.948-4.12-0.948-6.745v-25.484h10.5v25.557c0 1.167 0.133 2.151 0.401 2.953 0.291 0.802 0.692 1.458 1.203 1.969s1.105 0.875 1.787 1.094c0.704 0.219 1.483 0.328 2.333 0.328 2.163 0 3.864-0.437 5.104-1.312 1.264-0.875 2.151-2.066 2.661-3.573 0.535-1.531 0.803-3.233 0.803-5.104zM329.131 113.099c0-0.753-0.219-1.434-0.656-2.042s-1.252-1.167-2.443-1.677c-1.167-0.535-2.856-1.021-5.068-1.458-1.993-0.437-3.852-0.984-5.577-1.641-1.701-0.681-3.184-1.495-4.448-2.443-1.24-0.948-2.212-2.066-2.917-3.354-0.704-1.313-1.057-2.807-1.057-4.484 0-1.653 0.353-3.208 1.057-4.667 0.729-1.458 1.763-2.747 3.099-3.865 1.361-1.142 3.015-2.030 4.959-2.661 1.969-0.656 4.181-0.984 6.636-0.984 3.427 0 6.368 0.547 8.823 1.641 2.479 1.094 4.375 2.601 5.688 4.521 1.336 1.896 2.004 4.059 2.004 6.49h-10.5c0-1.021-0.219-1.932-0.656-2.734-0.413-0.826-1.069-1.471-1.968-1.932-0.876-0.486-2.017-0.729-3.428-0.729-1.167 0-2.175 0.207-3.025 0.62-0.851 0.389-1.507 0.924-1.969 1.604-0.437 0.656-0.656 1.385-0.656 2.187 0 0.608 0.121 1.155 0.365 1.641 0.267 0.462 0.692 0.887 1.276 1.276 0.583 0.389 1.336 0.753 2.26 1.094 0.948 0.316 2.115 0.608 3.5 0.875 2.844 0.583 5.384 1.349 7.62 2.297 2.236 0.924 4.011 2.187 5.323 3.792 1.312 1.58 1.969 3.658 1.969 6.234 0 1.75-0.389 3.354-1.167 4.813-0.779 1.458-1.896 2.734-3.355 3.828-1.459 1.069-3.208 1.908-5.251 2.516-2.017 0.583-4.289 0.875-6.817 0.875-3.669 0-6.781-0.656-9.333-1.969-2.528-1.313-4.448-2.977-5.76-4.995-1.288-2.042-1.932-4.132-1.932-6.271h9.952c0.049 1.434 0.413 2.589 1.095 3.464 0.704 0.875 1.592 1.507 2.661 1.896 1.093 0.389 2.272 0.583 3.536 0.583 1.361 0 2.492-0.182 3.391-0.547 0.9-0.389 1.58-0.899 2.041-1.531 0.487-0.656 0.729-1.41 0.729-2.26zM358.733 84.552v39.448h-10.536v-39.448h10.536zM347.541 74.271c0-1.531 0.535-2.795 1.604-3.792s2.503-1.495 4.301-1.495c1.775 0 3.197 0.498 4.267 1.495 1.093 0.997 1.64 2.26 1.64 3.792s-0.547 2.795-1.64 3.792c-1.069 0.997-2.492 1.495-4.267 1.495-1.799 0-3.232-0.498-4.301-1.495s-1.604-2.26-1.604-3.792zM379.185 92.974v31.026h-10.5v-39.448h9.844l0.656 8.422zM377.655 102.891h-2.844c0-2.917 0.376-5.542 1.129-7.875 0.755-2.358 1.812-4.363 3.172-6.016 1.361-1.677 2.977-2.953 4.849-3.828 1.896-0.899 4.011-1.349 6.344-1.349 1.847 0 3.536 0.267 5.068 0.802 1.531 0.535 2.843 1.385 3.937 2.552 1.117 1.167 1.968 2.71 2.552 4.63 0.608 1.92 0.911 4.266 0.911 7.036v25.156h-10.572v-25.193c0-1.75-0.244-3.111-0.729-4.083-0.487-0.972-1.203-1.653-2.151-2.042-0.924-0.413-2.067-0.62-3.428-0.62-1.409 0-2.637 0.279-3.681 0.839-1.021 0.559-1.872 1.337-2.552 2.333-0.657 0.972-1.155 2.115-1.496 3.427-0.34 1.313-0.509 2.722-0.509 4.229zM430.408 124.729c-3.063 0-5.809-0.486-8.24-1.458-2.431-0.997-4.496-2.37-6.197-4.12-1.677-1.75-2.965-3.78-3.865-6.089-0.899-2.333-1.348-4.813-1.348-7.437v-1.458c0-2.99 0.425-5.724 1.276-8.203s2.065-4.63 3.645-6.453c1.604-1.823 3.548-3.221 5.833-4.193 2.285-0.997 4.861-1.495 7.729-1.495 2.795 0 5.275 0.462 7.437 1.385s3.975 2.236 5.432 3.938c1.483 1.701 2.601 3.743 3.355 6.125 0.753 2.358 1.131 4.983 1.131 7.875v4.375h-31.355v-7h21.036v-0.802c0-1.458-0.267-2.759-0.801-3.901-0.511-1.167-1.288-2.090-2.333-2.771s-2.383-1.021-4.011-1.021c-1.385 0-2.576 0.304-3.573 0.911-0.996 0.608-1.811 1.458-2.443 2.552-0.608 1.094-1.069 2.382-1.385 3.865-0.292 1.458-0.437 3.063-0.437 4.813v1.458c0 1.58 0.219 3.038 0.656 4.375 0.463 1.337 1.107 2.491 1.932 3.464 0.851 0.972 1.872 1.726 3.063 2.26 1.216 0.535 2.589 0.802 4.12 0.802 1.896 0 3.659-0.365 5.287-1.094 1.653-0.753 3.075-1.884 4.265-3.391l5.104 5.542c-0.827 1.191-1.956 2.333-3.391 3.427-1.409 1.094-3.111 1.993-5.104 2.698-1.993 0.681-4.265 1.021-6.817 1.021zM475.396 113.099c0-0.753-0.219-1.434-0.656-2.042s-1.252-1.167-2.443-1.677c-1.167-0.535-2.856-1.021-5.068-1.458-1.993-0.437-3.852-0.984-5.579-1.641-1.701-0.681-3.184-1.495-4.448-2.443-1.239-0.948-2.211-2.066-2.916-3.354-0.705-1.313-1.057-2.807-1.057-4.484 0-1.653 0.352-3.208 1.057-4.667 0.729-1.458 1.763-2.747 3.099-3.865 1.361-1.142 3.015-2.030 4.959-2.661 1.968-0.656 4.18-0.984 6.635-0.984 3.428 0 6.369 0.547 8.824 1.641 2.479 1.094 4.375 2.601 5.687 4.521 1.337 1.896 2.005 4.059 2.005 6.49h-10.5c0-1.021-0.219-1.932-0.656-2.734-0.413-0.826-1.069-1.471-1.969-1.932-0.875-0.486-2.017-0.729-3.427-0.729-1.167 0-2.175 0.207-3.025 0.62-0.851 0.389-1.508 0.924-1.969 1.604-0.437 0.656-0.656 1.385-0.656 2.187 0 0.608 0.121 1.155 0.364 1.641 0.268 0.462 0.693 0.887 1.276 1.276 0.584 0.389 1.337 0.753 2.261 1.094 0.948 0.316 2.115 0.608 3.5 0.875 2.843 0.583 5.383 1.349 7.619 2.297 2.237 0.924 4.011 2.187 5.324 3.792 1.312 1.58 1.968 3.658 1.968 6.234 0 1.75-0.388 3.354-1.167 4.813-0.777 1.458-1.896 2.734-3.353 3.828-1.459 1.069-3.209 1.908-5.251 2.516-2.017 0.583-4.289 0.875-6.817 0.875-3.671 0-6.781-0.656-9.333-1.969-2.528-1.313-4.448-2.977-5.76-4.995-1.289-2.042-1.933-4.132-1.933-6.271h9.953c0.049 1.434 0.413 2.589 1.093 3.464 0.705 0.875 1.592 1.507 2.663 1.896 1.093 0.389 2.272 0.583 3.536 0.583 1.361 0 2.491-0.182 3.391-0.547 0.899-0.389 1.58-0.899 2.041-1.531 0.487-0.656 0.729-1.41 0.729-2.26zM515.244 113.099c0-0.753-0.219-1.434-0.657-2.042-0.437-0.608-1.251-1.167-2.443-1.677-1.167-0.535-2.855-1.021-5.067-1.458-1.993-0.437-3.853-0.984-5.579-1.641-1.701-0.681-3.184-1.495-4.448-2.443-1.24-0.948-2.212-2.066-2.916-3.354-0.705-1.313-1.057-2.807-1.057-4.484 0-1.653 0.352-3.208 1.057-4.667 0.729-1.458 1.761-2.747 3.099-3.865 1.361-1.142 3.013-2.030 4.959-2.661 1.968-0.656 4.18-0.984 6.635-0.984 3.427 0 6.368 0.547 8.823 1.641 2.48 1.094 4.376 2.601 5.688 4.521 1.337 1.896 2.005 4.059 2.005 6.49h-10.5c0-1.021-0.219-1.932-0.656-2.734-0.413-0.826-1.069-1.471-1.969-1.932-0.875-0.486-2.017-0.729-3.427-0.729-1.167 0-2.176 0.207-3.027 0.62-0.851 0.389-1.507 0.924-1.968 1.604-0.437 0.656-0.656 1.385-0.656 2.187 0 0.608 0.121 1.155 0.364 1.641 0.268 0.462 0.693 0.887 1.276 1.276 0.584 0.389 1.337 0.753 2.26 1.094 0.948 0.316 2.115 0.608 3.5 0.875 2.844 0.583 5.384 1.349 7.62 2.297 2.236 0.924 4.011 2.187 5.323 3.792 1.313 1.58 1.969 3.658 1.969 6.234 0 1.75-0.389 3.354-1.167 4.813s-1.896 2.734-3.355 3.828c-1.457 1.069-3.208 1.908-5.249 2.516-2.017 0.583-4.291 0.875-6.817 0.875-3.671 0-6.781-0.656-9.333-1.969-2.528-1.313-4.448-2.977-5.761-4.995-1.288-2.042-1.932-4.132-1.932-6.271h9.953c0.048 1.434 0.413 2.589 1.093 3.464 0.705 0.875 1.592 1.507 2.661 1.896 1.095 0.389 2.273 0.583 3.537 0.583 1.36 0 2.491-0.182 3.391-0.547 0.899-0.389 1.579-0.899 2.041-1.531 0.485-0.656 0.729-1.41 0.729-2.26z"></path>
<path fill="#2e2f42" style="fill: var(--color4, #2e2f42)" opacity="0.4" d="M-741.333-378.667h1920v901.333h-1920v-901.333z"></path>
<path fill="#fcfcfc" style="fill: var(--color5, #fcfcfc)" d="M-48-272h533.333c2.946 0 5.333 2.388 5.333 5.333v768c0 2.946-2.388 5.333-5.333 5.333h-533.333c-2.946 0-5.333-2.388-5.333-5.333v-768c0-2.946 2.388-5.333 5.333-5.333z"></path>
<path fill="none" stroke="#2e2f42" style="stroke: var(--color4, #2e2f42)" stroke-linejoin="miter" stroke-linecap="butt" stroke-miterlimit="4" stroke-width="1.3333" d="M-16-10h469.333c2.577 0 4.667 2.089 4.667 4.667v42.667c0 2.577-2.089 4.667-4.667 4.667h-469.333c-2.577 0-4.667-2.089-4.667-4.667v-42.667c0-2.577 2.089-4.667 4.667-4.667z"></path>
<path fill="#2e2f42" style="fill: var(--color4, #2e2f42)" d="M19.635 18.487l-2.451-0.28c-0.589-0.067-1.167 0.135-1.582 0.55l-1.775 1.775c-2.731-1.389-4.969-3.618-6.359-6.359l1.785-1.785c0.415-0.415 0.618-0.994 0.55-1.582l-0.28-2.432c-0.116-0.975-0.936-1.708-1.92-1.708h-1.669c-1.090 0-1.997 0.907-1.93 1.997 0.511 8.24 7.102 14.821 15.332 15.332 1.090 0.068 1.997-0.839 1.997-1.93v-1.669c0.010-0.975-0.724-1.795-1.698-1.911z"></path>
</symbol>
<symbol id="icon-person-black" viewBox="0 0 32 32">
<path d="M16 16c2.947 0 5.333-2.387 5.333-5.333s-2.387-5.333-5.333-5.333c-2.947 0-5.333 2.387-5.333 5.333s2.387 5.333 5.333 5.333zM16 18.667c-3.56 0-10.667 1.787-10.667 5.333v1.333c0 0.733 0.6 1.333 1.333 1.333h18.667c0.733 0 1.333-0.6 1.333-1.333v-1.333c0-3.547-7.107-5.333-10.667-5.333z"></path>
</symbol>
<symbol id="icon-Frame" viewBox="0 0 32 32">
<path fill="#fff" style="fill: var(--color2, #fff)" d="M32 2.667l-32 15 10.227 3.156 15.773-12.323-11.998 13.488 0.010 0.003-0.012-0.003v7.345l5.735-5.576 7.265 2.242 5-23.333z"></path>
</symbol>
</defs>
</svg>
<svg xmlns="http://www.w3.org/2000/svg" aria-hidden="true" style="position:absolute;width:0;height:0;overflow:hidden">
  <defs>
    <symbol id="icon-close" viewBox="0 0 32 32">
      <path d="M32 3.223 28.777 0 16 12.777 3.223 0 0 3.223 12.777 16 0 28.777 3.223 32 16 19.223 28.777 32 32 28.777 19.223 16 32 3.223z"/>
    </symbol>
  </defs>
</svg>

  </defs>
</svg>
